<svg xmlns="http://www.w3.org/2000/svg" xmlns:xlink="http://www.w3.org/1999/xlink" width="500" zoomAndPan="magnify" viewBox="0 0 375 374.999991" height="500" preserveAspectRatio="xMidYMid meet" version="1.2"><defs><clipPath id="2774d8a8f5"><path d="M 0 115 L 375 115 L 375 243 L 0 243 Z M 0 115 "/></clipPath><clipPath id="82e8aaed36"><path d="M 102.5625 -23.398438 L 413.933594 167.53125 L 272.402344 398.34375 L -38.972656 207.414062 Z M 102.5625 -23.398438 "/></clipPath><clipPath id="20bddb23d1"><path d="M 102.5625 -23.398438 L 413.933594 167.53125 L 272.402344 398.34375 L -38.972656 207.414062 Z M 102.5625 -23.398438 "/></clipPath><clipPath id="05e65b3950"><path d="M 8 162 L 375 162 L 375 238 L 8 238 Z M 8 162 "/></clipPath><clipPath id="7f253e511c"><path d="M 102.5625 -23.398438 L 413.933594 167.53125 L 272.402344 398.34375 L -38.972656 207.414062 Z M 102.5625 -23.398438 "/></clipPath><clipPath id="e0a5c4005f"><path d="M 102.5625 -23.398438 L 413.933594 167.53125 L 272.402344 398.34375 L -38.972656 207.414062 Z M 102.5625 -23.398438 "/></clipPath><clipPath id="0440687cad"><path d="M 0 121 L 367 121 L 367 213 L 0 213 Z M 0 121 "/></clipPath><clipPath id="a156aa324f"><path d="M 102.5625 -23.398438 L 413.933594 167.53125 L 272.402344 398.34375 L -38.972656 207.414062 Z M 102.5625 -23.398438 "/></clipPath><clipPath id="308a670918"><path d="M 102.5625 -23.398438 L 413.933594 167.53125 L 272.402344 398.34375 L -38.972656 207.414062 Z M 102.5625 -23.398438 "/></clipPath><clipPath id="c356e69a70"><path d="M 0 145 L 375 145 L 375 226 L 0 226 Z M 0 145 "/></clipPath><clipPath id="534f0a817a"><path d="M 102.5625 -23.398438 L 413.933594 167.53125 L 272.402344 398.34375 L -38.972656 207.414062 Z M 102.5625 -23.398438 "/></clipPath><clipPath id="9a35193628"><path d="M 102.5625 -23.398438 L 413.933594 167.53125 L 272.402344 398.34375 L -38.972656 207.414062 Z M 102.5625 -23.398438 "/></clipPath></defs><g id="ee9dc01206"><g clip-rule="nonzero" clip-path="url(#2774d8a8f5)"><g clip-rule="nonzero" clip-path="url(#82e8aaed36)"><g clip-rule="nonzero" clip-path="url(#20bddb23d1)"><path style=" stroke:none;fill-rule:nonzero;fill:#4d4d4d;fill-opacity:1;" d="M 16.304688 241.285156 L -38.871094 207.449219 L -28.460938 190.472656 L -27.265625 188.570312 L -26.660156 187.613281 C -26.464844 187.292969 -26.257812 186.972656 -26.046875 186.660156 L -24.789062 184.769531 L -24.15625 183.824219 C -23.949219 183.507812 -23.726562 183.203125 -23.507812 182.890625 L -22.199219 181.03125 L -21.871094 180.566406 C -21.761719 180.414062 -21.652344 180.257812 -21.539062 180.109375 L -20.863281 179.191406 L -19.503906 177.367188 C -19.28125 177.0625 -19.042969 176.765625 -18.808594 176.464844 L -18.113281 175.566406 C -17.644531 174.96875 -17.179688 174.367188 -16.703125 173.777344 L -15.257812 172.019531 C -14.773438 171.433594 -14.292969 170.84375 -13.792969 170.273438 C -12.792969 169.128906 -11.808594 167.96875 -10.777344 166.851562 C -4.644531 160.070312 2.035156 153.875 9.257812 148.265625 C 16.480469 142.65625 24.136719 137.71875 32.226562 133.449219 L 33.230469 132.925781 C 33.566406 132.746094 33.902344 132.570312 34.242188 132.402344 L 36.277344 131.386719 L 37.300781 130.882812 L 38.332031 130.394531 L 40.394531 129.429688 C 40.734375 129.265625 41.085938 129.121094 41.433594 128.964844 L 42.472656 128.507812 L 43.515625 128.046875 C 43.863281 127.894531 44.210938 127.742188 44.5625 127.601562 L 46.664062 126.730469 C 47.015625 126.585938 47.363281 126.445312 47.71875 126.300781 L 48.78125 125.890625 L 50.90625 125.078125 C 51.617188 124.8125 52.332031 124.5625 53.042969 124.304688 L 54.117188 123.921875 L 54.652344 123.734375 C 54.835938 123.671875 55.011719 123.613281 55.191406 123.550781 L 57.351562 122.835938 C 57.710938 122.71875 58.070312 122.597656 58.433594 122.484375 L 59.523438 122.152344 L 61.703125 121.492188 C 62.429688 121.277344 63.160156 121.078125 63.890625 120.875 L 64.988281 120.570312 L 65.535156 120.421875 L 66.085938 120.277344 C 71.964844 118.746094 77.910156 117.550781 83.925781 116.6875 C 89.945312 115.839844 95.992188 115.332031 102.070312 115.171875 C 108.148438 115.011719 114.214844 115.203125 120.269531 115.75 L 121.402344 115.851562 L 121.972656 115.90625 C 122.160156 115.921875 122.347656 115.945312 122.539062 115.96875 L 124.808594 116.226562 C 125.183594 116.269531 125.5625 116.3125 125.9375 116.359375 L 127.070312 116.511719 L 129.328125 116.828125 C 129.703125 116.875 130.078125 116.945312 130.457031 117.003906 L 132.707031 117.371094 C 133.082031 117.433594 133.457031 117.492188 133.832031 117.566406 L 136.070312 117.988281 L 137.191406 118.203125 L 138.308594 118.4375 C 150.269531 120.925781 161.777344 124.769531 172.835938 129.96875 L 173.863281 130.457031 L 174.378906 130.699219 L 174.886719 130.949219 L 176.925781 131.964844 L 177.941406 132.472656 L 178.949219 133 L 180.957031 134.066406 L 181.457031 134.332031 L 182.945312 135.164062 L 184.921875 136.28125 L 186.875 137.4375 L 187.851562 138.019531 L 188.332031 138.316406 L 230.792969 164.351562 L 231.082031 164.527344 L 231.664062 164.875 L 232.824219 165.566406 L 234 166.226562 L 234.589844 166.558594 L 234.882812 166.722656 C 234.980469 166.785156 235.082031 166.828125 235.179688 166.882812 L 236.367188 167.507812 L 236.960938 167.828125 C 237.160156 167.929688 237.363281 168.027344 237.5625 168.125 L 238.769531 168.722656 C 239.164062 168.929688 239.578125 169.109375 239.984375 169.300781 L 241.203125 169.871094 L 242.433594 170.40625 L 243.050781 170.675781 C 243.253906 170.765625 243.460938 170.859375 243.667969 170.9375 L 244.910156 171.445312 L 245.53125 171.695312 C 245.738281 171.777344 245.949219 171.855469 246.15625 171.9375 C 249.496094 173.21875 252.898438 174.304688 256.359375 175.199219 C 259.828125 176.078125 263.332031 176.757812 266.875 177.238281 L 267.539062 177.332031 C 267.761719 177.363281 267.984375 177.382812 268.207031 177.410156 L 269.539062 177.5625 L 269.871094 177.601562 L 270.207031 177.628906 L 270.875 177.6875 L 272.210938 177.808594 L 273.550781 177.890625 L 274.21875 177.9375 C 274.441406 177.957031 274.667969 177.957031 274.890625 177.96875 C 275.785156 178 276.679688 178.050781 277.574219 178.050781 L 278.914062 178.074219 L 280.257812 178.0625 C 281.15625 178.070312 282.050781 178.019531 282.945312 177.996094 C 283.394531 177.988281 283.839844 177.953125 284.289062 177.929688 L 285.628906 177.855469 L 286.96875 177.746094 C 287.417969 177.710938 287.867188 177.683594 288.3125 177.628906 C 295.488281 176.933594 302.488281 175.425781 309.3125 173.105469 L 309.632812 173 L 310.582031 172.660156 C 311.003906 172.507812 311.425781 172.359375 311.847656 172.207031 L 313.101562 171.722656 L 313.730469 171.484375 C 313.941406 171.402344 314.148438 171.308594 314.355469 171.226562 L 315.597656 170.71875 L 315.910156 170.589844 L 316.214844 170.453125 L 316.851562 170.164062 C 317.257812 169.984375 317.671875 169.808594 318.082031 169.621094 L 319.296875 169.046875 L 319.902344 168.761719 C 320.101562 168.667969 320.308594 168.566406 320.503906 168.460938 L 321.703125 167.863281 L 322.007812 167.714844 L 322.300781 167.554688 L 322.894531 167.242188 C 323.289062 167.03125 323.6875 166.828125 324.082031 166.613281 C 325.644531 165.738281 327.199219 164.855469 328.710938 163.898438 L 329.847656 163.1875 L 330.964844 162.445312 C 331.71875 161.964844 332.441406 161.4375 333.179688 160.933594 C 333.550781 160.683594 333.902344 160.410156 334.265625 160.144531 L 335.347656 159.355469 L 336.40625 158.535156 C 336.757812 158.261719 337.117188 157.996094 337.460938 157.710938 C 340.25 155.472656 342.902344 153.085938 345.421875 150.546875 L 345.660156 150.3125 L 345.890625 150.070312 L 346.351562 149.582031 L 347.28125 148.617188 L 348.183594 147.625 C 348.484375 147.292969 348.792969 146.972656 349.082031 146.628906 L 349.960938 145.613281 C 350.105469 145.445312 350.257812 145.28125 350.398438 145.105469 L 350.824219 144.585938 L 351.675781 143.558594 C 351.820312 143.390625 351.957031 143.207031 352.09375 143.03125 L 352.511719 142.5 C 354.730469 139.667969 356.78125 136.71875 358.664062 133.652344 L 413.839844 167.484375 C 410.664062 172.652344 407.203125 177.628906 403.464844 182.40625 L 402.761719 183.300781 C 402.527344 183.597656 402.296875 183.898438 402.054688 184.191406 L 400.605469 185.949219 L 399.878906 186.828125 C 399.636719 187.121094 399.382812 187.402344 399.136719 187.695312 L 397.644531 189.414062 C 397.148438 189.992188 396.632812 190.546875 396.125 191.113281 L 394.585938 192.796875 C 394.066406 193.347656 393.535156 193.894531 393.011719 194.445312 L 392.222656 195.269531 L 391.828125 195.679688 L 391.425781 196.082031 C 387.132812 200.40625 382.613281 204.472656 377.859375 208.277344 C 377.273438 208.761719 376.664062 209.21875 376.0625 209.683594 L 374.261719 211.078125 L 372.425781 212.425781 C 371.808594 212.875 371.203125 213.332031 370.574219 213.761719 C 369.328125 214.628906 368.085938 215.515625 366.8125 216.339844 L 364.90625 217.597656 C 364.265625 218.007812 363.621094 218.40625 362.976562 218.8125 C 360.40625 220.433594 357.773438 221.949219 355.113281 223.417969 C 354.445312 223.78125 353.773438 224.132812 353.101562 224.488281 L 352.09375 225.019531 L 351.59375 225.28125 L 351.082031 225.539062 L 349.042969 226.558594 C 348.703125 226.726562 348.367188 226.898438 348.023438 227.058594 L 344.929688 228.511719 C 344.238281 228.824219 343.542969 229.125 342.847656 229.433594 L 341.804688 229.890625 L 341.285156 230.121094 L 340.757812 230.335938 L 338.652344 231.207031 C 338.300781 231.347656 337.957031 231.492188 337.597656 231.632812 L 336.539062 232.042969 L 334.414062 232.855469 C 333.703125 233.121094 332.984375 233.371094 332.273438 233.628906 L 331.199219 234.007812 L 330.664062 234.199219 L 330.125 234.378906 C 318.582031 238.300781 306.742188 240.847656 294.609375 242.023438 C 293.855469 242.109375 293.097656 242.164062 292.34375 242.226562 L 290.078125 242.40625 L 287.804688 242.539062 C 287.046875 242.578125 286.289062 242.628906 285.527344 242.648438 C 284.011719 242.695312 282.496094 242.761719 280.976562 242.757812 L 278.699219 242.777344 L 276.421875 242.742188 C 274.902344 242.730469 273.382812 242.660156 271.867188 242.597656 C 271.488281 242.578125 271.109375 242.570312 270.730469 242.542969 L 269.589844 242.472656 L 267.316406 242.324219 C 266.558594 242.261719 265.804688 242.191406 265.046875 242.125 L 263.910156 242.023438 L 263.34375 241.96875 L 262.777344 241.90625 L 260.507812 241.652344 C 260.132812 241.605469 259.753906 241.566406 259.375 241.515625 L 258.246094 241.359375 C 252.210938 240.546875 246.242188 239.386719 240.34375 237.882812 C 234.445312 236.367188 228.652344 234.519531 222.96875 232.34375 C 222.613281 232.207031 222.257812 232.074219 221.902344 231.9375 L 220.847656 231.507812 L 218.738281 230.644531 C 218.386719 230.503906 218.035156 230.355469 217.691406 230.199219 L 216.644531 229.746094 C 215.949219 229.441406 215.25 229.140625 214.558594 228.828125 L 212.496094 227.871094 C 211.808594 227.546875 211.117188 227.234375 210.4375 226.894531 L 208.402344 225.882812 C 208.0625 225.710938 207.722656 225.542969 207.382812 225.371094 L 206.378906 224.839844 L 204.367188 223.777344 C 204.203125 223.6875 204.035156 223.597656 203.867188 223.507812 L 203.371094 223.230469 L 202.382812 222.675781 L 200.40625 221.558594 L 198.453125 220.398438 L 197.480469 219.820312 L 196.996094 219.523438 L 154.929688 193.726562 L 152.539062 192.300781 L 151.359375 191.640625 L 150.773438 191.308594 L 150.480469 191.140625 L 150.179688 190.988281 L 148.996094 190.359375 L 148.398438 190.042969 L 147.796875 189.746094 L 146.589844 189.148438 L 146.289062 188.996094 L 145.375 188.574219 C 138.875 185.511719 132.109375 183.253906 125.078125 181.792969 L 124.425781 181.648438 L 123.761719 181.53125 L 122.445312 181.28125 C 122.226562 181.234375 122.007812 181.203125 121.789062 181.164062 L 120.46875 180.945312 C 120.246094 180.910156 120.027344 180.867188 119.804688 180.839844 L 118.476562 180.660156 L 117.8125 180.566406 C 117.59375 180.539062 117.371094 180.515625 117.148438 180.488281 L 115.8125 180.335938 C 115.703125 180.324219 115.59375 180.308594 115.480469 180.296875 L 115.148438 180.269531 L 114.480469 180.210938 C 110.910156 179.882812 107.332031 179.769531 103.75 179.867188 C 100.164062 179.964844 96.59375 180.261719 93.039062 180.761719 C 89.480469 181.273438 85.960938 181.980469 82.480469 182.886719 L 82.152344 182.96875 L 81.832031 183.058594 L 81.183594 183.242188 C 80.75 183.363281 80.316406 183.476562 79.886719 183.601562 L 78.601562 183.996094 L 77.957031 184.1875 C 77.742188 184.257812 77.527344 184.332031 77.316406 184.398438 L 76.039062 184.820312 C 75.929688 184.855469 75.824219 184.890625 75.71875 184.925781 L 75.402344 185.042969 L 74.769531 185.269531 C 74.347656 185.421875 73.921875 185.5625 73.503906 185.722656 L 72.246094 186.207031 L 71.617188 186.445312 C 71.410156 186.527344 71.203125 186.617188 70.996094 186.703125 L 69.753906 187.214844 C 69.546875 187.296875 69.339844 187.386719 69.136719 187.476562 L 68.519531 187.75 L 67.90625 188.019531 C 67.707031 188.113281 67.492188 188.195312 67.292969 188.292969 L 66.074219 188.863281 L 65.472656 189.152344 C 65.269531 189.25 65.070312 189.351562 64.871094 189.453125 L 63.664062 190.046875 C 63.460938 190.144531 63.265625 190.25 63.070312 190.355469 L 62.476562 190.671875 C 56.125 194.023438 50.242188 198.0625 44.832031 202.785156 C 42.144531 205.144531 39.597656 207.648438 37.195312 210.300781 C 36.582031 210.949219 36.011719 211.640625 35.421875 212.3125 C 35.125 212.644531 34.84375 212.996094 34.558594 213.339844 L 33.707031 214.375 C 33.421875 214.722656 33.152344 215.082031 32.875 215.4375 L 32.457031 215.964844 C 32.320312 216.144531 32.175781 216.3125 32.046875 216.496094 L 31.246094 217.574219 L 30.84375 218.113281 C 30.773438 218.203125 30.707031 218.292969 30.644531 218.386719 L 30.453125 218.664062 L 29.675781 219.765625 C 29.546875 219.949219 29.414062 220.128906 29.289062 220.316406 L 28.917969 220.878906 L 28.167969 222 C 28.039062 222.1875 27.925781 222.378906 27.804688 222.570312 L 27.445312 223.140625 L 26.710938 224.304688 L 16.300781 241.28125 Z M 16.304688 241.285156 "/></g></g></g><g clip-rule="nonzero" clip-path="url(#05e65b3950)"><g clip-rule="nonzero" clip-path="url(#7f253e511c)"><g clip-rule="nonzero" clip-path="url(#e0a5c4005f)"><path style=" stroke:none;fill-rule:nonzero;fill:#f7c90d;fill-opacity:1;" d="M 10.511719 237.734375 L 8.578125 236.546875 L 18.988281 219.570312 L 19.789062 218.308594 L 20.183594 217.679688 C 20.3125 217.472656 20.441406 217.257812 20.582031 217.058594 L 21.402344 215.828125 L 21.8125 215.210938 C 21.945312 215.007812 22.09375 214.8125 22.234375 214.605469 L 23.085938 213.398438 L 23.296875 213.097656 C 23.363281 213 23.4375 212.898438 23.511719 212.800781 L 23.949219 212.214844 L 24.828125 211.03125 C 24.96875 210.832031 25.128906 210.640625 25.277344 210.449219 L 25.730469 209.871094 C 26.035156 209.484375 26.328125 209.097656 26.636719 208.714844 L 27.578125 207.578125 C 27.890625 207.199219 28.195312 206.816406 28.527344 206.445312 C 29.175781 205.703125 29.800781 204.949219 30.472656 204.234375 C 33.109375 201.324219 35.90625 198.574219 38.859375 195.984375 C 44.800781 190.796875 51.257812 186.363281 58.234375 182.679688 L 58.882812 182.332031 C 59.097656 182.214844 59.3125 182.097656 59.539062 181.996094 L 61.515625 181.007812 L 62.183594 180.703125 L 63.515625 180.074219 C 63.734375 179.964844 63.964844 179.875 64.191406 179.773438 L 64.867188 179.472656 L 65.542969 179.175781 C 65.765625 179.074219 65.992188 178.976562 66.21875 178.886719 L 67.582031 178.324219 C 67.8125 178.230469 68.035156 178.132812 68.265625 178.042969 L 68.957031 177.78125 L 70.332031 177.25 C 70.792969 177.074219 71.257812 176.917969 71.71875 176.75 L 72.414062 176.503906 L 72.761719 176.378906 C 72.878906 176.335938 72.996094 176.300781 73.117188 176.265625 L 74.519531 175.804688 C 74.75 175.726562 74.984375 175.648438 75.21875 175.570312 L 75.921875 175.355469 L 77.328125 174.921875 C 77.800781 174.785156 78.277344 174.660156 78.75 174.527344 L 79.460938 174.328125 L 79.816406 174.226562 L 80.175781 174.136719 C 83.988281 173.148438 87.839844 172.371094 91.738281 171.808594 C 95.636719 171.261719 99.554688 170.933594 103.492188 170.828125 C 107.425781 170.722656 111.347656 170.847656 115.265625 171.207031 L 116 171.269531 L 116.367188 171.304688 C 116.488281 171.3125 116.609375 171.332031 116.730469 171.34375 L 118.199219 171.511719 C 118.441406 171.539062 118.6875 171.566406 118.929688 171.59375 L 119.660156 171.699219 L 121.117188 171.898438 C 121.359375 171.929688 121.601562 171.976562 121.84375 172.011719 L 122.570312 172.132812 L 123.3125 172.242188 C 123.554688 172.28125 123.796875 172.316406 124.039062 172.363281 L 126.207031 172.773438 L 126.925781 172.929688 C 134.648438 174.53125 142.078125 177.015625 149.214844 180.375 L 149.882812 180.683594 L 150.214844 180.839844 L 150.542969 181.003906 L 151.863281 181.660156 L 152.519531 181.984375 L 153.171875 182.332031 L 154.476562 183.023438 L 154.800781 183.195312 L 155.121094 183.371094 L 157.054688 184.460938 L 159.644531 186.007812 L 201.710938 211.800781 L 202.167969 212.078125 L 203.085938 212.628906 L 204.925781 213.722656 L 206.792969 214.773438 L 207.726562 215.296875 L 208.195312 215.558594 C 208.351562 215.648438 208.511719 215.730469 208.667969 215.8125 L 210.5625 216.816406 L 211.511719 217.316406 C 211.828125 217.480469 212.148438 217.636719 212.46875 217.796875 L 214.390625 218.753906 C 215.027344 219.078125 215.679688 219.371094 216.328125 219.675781 L 218.269531 220.582031 C 218.925781 220.875 219.582031 221.160156 220.238281 221.445312 L 221.222656 221.875 C 221.550781 222.015625 221.878906 222.160156 222.210938 222.292969 L 224.199219 223.101562 L 225.195312 223.503906 C 225.527344 223.636719 225.863281 223.761719 226.199219 223.886719 C 231.566406 225.941406 237.03125 227.683594 242.59375 229.109375 C 248.152344 230.527344 253.777344 231.621094 259.464844 232.386719 L 260.527344 232.53125 C 260.882812 232.582031 261.238281 232.617188 261.59375 232.660156 L 263.726562 232.902344 L 264.261719 232.960938 L 264.804688 233.007812 L 265.875 233.105469 C 266.589844 233.167969 267.300781 233.234375 268.015625 233.289062 L 270.160156 233.429688 L 271.230469 233.5 C 271.585938 233.523438 271.945312 233.53125 272.300781 233.546875 C 273.734375 233.605469 275.164062 233.675781 276.59375 233.6875 L 278.742188 233.71875 L 280.890625 233.703125 C 282.320312 233.703125 283.753906 233.640625 285.183594 233.597656 C 285.898438 233.582031 286.613281 233.53125 287.328125 233.492188 L 289.46875 233.371094 L 291.609375 233.199219 C 292.320312 233.140625 293.035156 233.089844 293.746094 233.007812 C 299.445312 232.449219 305.09375 231.570312 310.695312 230.371094 C 316.289062 229.15625 321.796875 227.632812 327.21875 225.800781 L 327.730469 225.632812 L 328.234375 225.453125 L 329.246094 225.09375 C 329.917969 224.851562 330.59375 224.617188 331.261719 224.367188 L 333.265625 223.597656 L 334.265625 223.210938 C 334.601562 223.082031 334.929688 222.941406 335.261719 222.808594 L 337.246094 221.992188 L 337.742188 221.785156 L 338.230469 221.570312 L 339.210938 221.136719 C 339.867188 220.847656 340.523438 220.5625 341.171875 220.265625 L 343.117188 219.355469 L 344.085938 218.898438 C 344.410156 218.746094 344.730469 218.582031 345.050781 218.425781 L 346.972656 217.464844 L 347.453125 217.222656 L 347.929688 216.972656 L 348.878906 216.472656 C 349.511719 216.136719 350.144531 215.804688 350.773438 215.460938 C 353.277344 214.074219 355.761719 212.648438 358.183594 211.121094 C 358.792969 210.742188 359.402344 210.363281 360.003906 209.976562 L 361.796875 208.792969 C 363 208.015625 364.164062 207.179688 365.34375 206.363281 C 365.933594 205.960938 366.507812 205.527344 367.085938 205.105469 L 368.816406 203.835938 L 370.519531 202.523438 C 371.085938 202.082031 371.660156 201.652344 372.210938 201.195312 C 376.691406 197.609375 380.953125 193.78125 384.992188 189.707031 L 385.371094 189.324219 L 385.746094 188.941406 L 386.492188 188.164062 C 386.988281 187.648438 387.484375 187.132812 387.976562 186.609375 L 389.425781 185.023438 C 389.90625 184.492188 390.394531 183.96875 390.859375 183.425781 L 392.265625 181.800781 C 392.5 181.53125 392.738281 181.265625 392.964844 180.988281 L 393.648438 180.160156 L 395.011719 178.5 C 395.242188 178.226562 395.460938 177.941406 395.683594 177.664062 L 396.34375 176.816406 C 399.871094 172.3125 403.132812 167.621094 406.128906 162.746094 L 408.058594 163.933594 C 405.015625 168.882812 401.703125 173.644531 398.121094 178.21875 L 397.453125 179.078125 C 397.226562 179.367188 397.007812 179.652344 396.773438 179.929688 L 395.390625 181.613281 L 394.695312 182.453125 C 394.464844 182.734375 394.222656 183.007812 393.984375 183.28125 L 392.558594 184.929688 C 392.085938 185.484375 391.589844 186.015625 391.101562 186.554688 L 389.628906 188.164062 C 389.128906 188.695312 388.625 189.21875 388.121094 189.742188 L 387.367188 190.53125 L 386.984375 190.921875 L 386.597656 191.304688 C 382.492188 195.441406 378.167969 199.332031 373.617188 202.972656 C 373.054688 203.4375 372.472656 203.875 371.898438 204.320312 L 370.167969 205.648438 L 368.410156 206.9375 C 367.824219 207.367188 367.242188 207.804688 366.640625 208.214844 C 365.445312 209.042969 364.261719 209.890625 363.042969 210.683594 L 361.222656 211.882812 C 360.609375 212.273438 359.992188 212.65625 359.375 213.042969 C 356.914062 214.59375 354.394531 216.046875 351.851562 217.453125 C 351.210938 217.796875 350.566406 218.136719 349.925781 218.476562 L 348.960938 218.984375 L 348.480469 219.242188 L 347.992188 219.484375 L 346.042969 220.464844 C 345.714844 220.625 345.390625 220.789062 345.0625 220.945312 L 344.078125 221.410156 L 342.101562 222.335938 C 341.441406 222.636719 340.773438 222.925781 340.109375 223.21875 L 339.113281 223.65625 L 338.613281 223.878906 L 336.09375 224.914062 C 335.757812 225.050781 335.425781 225.195312 335.085938 225.324219 L 334.070312 225.714844 L 332.035156 226.496094 C 331.355469 226.746094 330.667969 226.988281 329.984375 227.234375 L 328.957031 227.605469 L 328.445312 227.785156 L 327.925781 227.957031 C 316.882812 231.710938 305.554688 234.152344 293.941406 235.277344 C 293.21875 235.359375 292.496094 235.414062 291.773438 235.472656 L 289.601562 235.644531 L 287.425781 235.769531 C 286.699219 235.808594 285.976562 235.859375 285.25 235.875 C 283.796875 235.917969 282.34375 235.984375 280.890625 235.984375 L 278.710938 236 L 276.53125 235.96875 C 275.078125 235.957031 273.628906 235.886719 272.175781 235.828125 C 271.8125 235.808594 271.449219 235.804688 271.085938 235.777344 L 269.996094 235.707031 L 267.820312 235.566406 C 267.097656 235.507812 266.375 235.441406 265.652344 235.378906 L 264.570312 235.285156 L 264.027344 235.238281 L 263.484375 235.175781 L 261.316406 234.929688 C 260.957031 234.886719 260.59375 234.851562 260.234375 234.800781 L 259.152344 234.652344 C 253.378906 233.875 247.671875 232.765625 242.027344 231.328125 C 236.382812 229.878906 230.84375 228.109375 225.402344 226.023438 C 225.0625 225.894531 224.722656 225.769531 224.382812 225.636719 L 223.371094 225.226562 L 221.351562 224.40625 C 221.015625 224.273438 220.683594 224.125 220.347656 223.980469 L 219.347656 223.546875 C 218.683594 223.253906 218.015625 222.964844 217.351562 222.667969 L 215.378906 221.746094 C 214.722656 221.4375 214.0625 221.136719 213.414062 220.808594 L 211.464844 219.839844 C 211.136719 219.675781 210.8125 219.515625 210.492188 219.351562 L 209.527344 218.84375 L 207.605469 217.824219 C 207.445312 217.738281 207.28125 217.65625 207.125 217.566406 L 206.652344 217.300781 L 205.703125 216.769531 L 203.808594 215.703125 L 201.941406 214.59375 L 201.007812 214.035156 L 200.546875 213.75 L 158.46875 187.949219 L 155.929688 186.433594 L 154.667969 185.726562 L 154.035156 185.371094 L 153.71875 185.191406 L 153.394531 185.019531 L 152.117188 184.34375 L 151.480469 184.007812 L 150.832031 183.6875 L 149.542969 183.039062 L 149.21875 182.875 L 148.890625 182.722656 L 148.238281 182.417969 C 141.257812 179.132812 133.992188 176.703125 126.441406 175.136719 L 125.734375 174.988281 L 125.027344 174.855469 L 123.613281 174.585938 C 123.378906 174.539062 123.144531 174.503906 122.90625 174.464844 L 122.195312 174.351562 L 121.488281 174.234375 C 121.25 174.195312 121.011719 174.152344 120.777344 174.121094 L 119.351562 173.925781 L 118.636719 173.824219 C 118.398438 173.796875 118.160156 173.769531 117.921875 173.746094 L 116.492188 173.582031 C 116.371094 173.566406 116.253906 173.550781 116.136719 173.539062 L 115.058594 173.445312 C 111.230469 173.097656 107.390625 172.972656 103.546875 173.078125 C 99.699219 173.179688 95.867188 173.5 92.054688 174.035156 C 88.242188 174.585938 84.46875 175.34375 80.738281 176.3125 L 80.390625 176.402344 L 80.042969 176.5 L 79.351562 176.695312 C 78.890625 176.828125 78.425781 176.949219 77.960938 177.085938 L 76.582031 177.507812 L 75.886719 177.710938 C 75.65625 177.785156 75.429688 177.859375 75.199219 177.9375 L 73.832031 178.382812 C 73.71875 178.421875 73.605469 178.457031 73.492188 178.496094 L 73.152344 178.621094 L 72.472656 178.863281 C 72.019531 179.027344 71.5625 179.179688 71.113281 179.351562 L 69.765625 179.867188 L 69.09375 180.125 C 68.871094 180.214844 68.648438 180.308594 68.425781 180.402344 L 67.09375 180.949219 C 66.867188 181.035156 66.648438 181.132812 66.429688 181.230469 L 65.769531 181.523438 L 65.109375 181.8125 C 64.890625 181.910156 64.667969 182 64.449219 182.105469 L 63.144531 182.722656 L 62.492188 183.023438 C 62.277344 183.132812 62.0625 183.242188 61.847656 183.34375 L 60.5625 183.984375 C 60.347656 184.085938 60.132812 184.199219 59.921875 184.3125 L 59.285156 184.652344 C 52.46875 188.253906 46.15625 192.589844 40.34375 197.660156 C 37.460938 200.191406 34.726562 202.882812 32.148438 205.726562 C 31.488281 206.425781 30.875 207.164062 30.242188 207.886719 C 29.921875 208.246094 29.621094 208.621094 29.316406 208.992188 L 28.402344 210.101562 C 28.097656 210.476562 27.808594 210.859375 27.511719 211.234375 L 27.066406 211.804688 C 26.914062 211.996094 26.761719 212.179688 26.625 212.375 L 25.769531 213.535156 L 25.335938 214.113281 C 25.265625 214.210938 25.191406 214.308594 25.125 214.410156 L 24.914062 214.710938 L 24.082031 215.890625 C 23.945312 216.09375 23.800781 216.28125 23.667969 216.484375 L 23.269531 217.085938 L 22.464844 218.289062 C 22.328125 218.492188 22.203125 218.699219 22.070312 218.90625 L 21.6875 219.515625 L 20.90625 220.75 L 10.496094 237.730469 Z M 10.511719 237.734375 "/></g></g></g><g clip-rule="nonzero" clip-path="url(#0440687cad)"><g clip-rule="nonzero" clip-path="url(#a156aa324f)"><g clip-rule="nonzero" clip-path="url(#308a670918)"><path style=" stroke:none;fill-rule:nonzero;fill:#f7c90d;fill-opacity:1;" d="M -31.148438 212.1875 L -33.082031 211 L -22.671875 194.023438 L -21.523438 192.199219 L -20.941406 191.28125 C -20.753906 190.96875 -20.566406 190.664062 -20.355469 190.367188 L -19.148438 188.554688 L -18.546875 187.652344 C -18.34375 187.347656 -18.128906 187.050781 -17.925781 186.757812 L -16.671875 184.980469 L -16.359375 184.535156 C -16.253906 184.386719 -16.144531 184.238281 -16.039062 184.09375 L -15.390625 183.21875 L -14.09375 181.476562 C -13.878906 181.179688 -13.652344 180.898438 -13.429688 180.613281 L -12.761719 179.753906 C -12.3125 179.183594 -11.867188 178.605469 -11.410156 178.042969 L -10.027344 176.359375 C -9.5625 175.796875 -9.105469 175.234375 -8.625 174.6875 C -7.667969 173.59375 -6.730469 172.480469 -5.742188 171.414062 C 0.128906 164.925781 6.519531 159 13.429688 153.632812 C 20.339844 148.265625 27.667969 143.542969 35.40625 139.460938 L 36.371094 138.953125 C 36.691406 138.78125 37.007812 138.609375 37.339844 138.453125 L 39.289062 137.480469 L 40.265625 136.996094 L 41.25 136.53125 L 43.226562 135.601562 C 43.554688 135.445312 43.890625 135.304688 44.222656 135.15625 L 45.21875 134.71875 L 46.214844 134.277344 C 46.546875 134.132812 46.878906 133.988281 47.214844 133.851562 L 49.230469 133.019531 C 49.566406 132.882812 49.902344 132.742188 50.238281 132.609375 L 51.257812 132.214844 L 53.289062 131.4375 C 53.96875 131.179688 54.65625 130.945312 55.339844 130.695312 L 56.367188 130.328125 L 56.882812 130.144531 C 57.050781 130.085938 57.222656 130.03125 57.398438 129.972656 L 59.464844 129.289062 C 59.808594 129.175781 60.152344 129.058594 60.5 128.949219 L 61.539062 128.632812 L 63.625 128 C 64.320312 127.796875 65.023438 127.609375 65.722656 127.410156 L 67.292969 126.976562 L 67.820312 126.839844 C 73.445312 125.378906 79.132812 124.234375 84.882812 123.414062 C 90.640625 122.601562 96.429688 122.117188 102.242188 121.964844 C 108.058594 121.808594 113.867188 121.992188 119.664062 122.519531 L 120.746094 122.613281 L 121.289062 122.660156 C 121.46875 122.679688 121.652344 122.699219 121.828125 122.71875 L 123.996094 122.964844 C 124.355469 123.007812 124.71875 123.046875 125.078125 123.089844 L 126.160156 123.238281 L 128.320312 123.539062 C 128.679688 123.585938 129.039062 123.648438 129.398438 123.707031 L 130.472656 123.882812 L 131.550781 124.058594 C 131.910156 124.121094 132.269531 124.175781 132.628906 124.246094 L 134.773438 124.648438 L 135.84375 124.851562 L 136.910156 125.078125 C 148.355469 127.460938 159.367188 131.140625 169.945312 136.113281 L 170.929688 136.574219 L 171.421875 136.808594 L 171.910156 137.046875 L 173.863281 138.015625 L 174.835938 138.503906 L 175.796875 139.011719 L 177.722656 140.03125 L 178.203125 140.285156 L 178.675781 140.550781 L 179.625 141.082031 L 181.519531 142.148438 L 183.386719 143.257812 L 184.320312 143.816406 L 184.785156 144.097656 L 227.242188 170.132812 L 227.550781 170.324219 L 228.175781 170.695312 L 229.417969 171.4375 L 230.679688 172.144531 L 231.308594 172.5 L 231.625 172.679688 C 231.730469 172.742188 231.839844 172.792969 231.949219 172.851562 L 233.226562 173.523438 L 233.863281 173.863281 C 234.082031 173.976562 234.292969 174.078125 234.511719 174.1875 L 235.796875 174.835938 C 236.230469 175.058594 236.667969 175.25 237.101562 175.453125 L 238.40625 176.0625 C 238.847656 176.257812 239.289062 176.449219 239.726562 176.640625 L 240.390625 176.929688 C 240.609375 177.027344 240.828125 177.125 241.050781 177.210938 L 243.054688 178.019531 C 243.285156 178.109375 243.503906 178.1875 243.730469 178.273438 C 258.050781 183.804688 273.65625 185.875 288.976562 184.378906 C 296.675781 183.636719 304.183594 182.019531 311.503906 179.53125 L 311.847656 179.417969 L 312.867188 179.054688 C 313.320312 178.890625 313.777344 178.734375 314.226562 178.566406 L 315.570312 178.046875 L 316.246094 177.789062 C 316.46875 177.707031 316.691406 177.609375 316.914062 177.519531 L 318.25 176.96875 L 318.582031 176.835938 L 318.914062 176.6875 L 319.574219 176.394531 C 320.011719 176.203125 320.453125 176.011719 320.890625 175.816406 L 322.195312 175.199219 L 322.847656 174.894531 C 323.066406 174.792969 323.28125 174.683594 323.492188 174.578125 L 324.78125 173.941406 L 325.105469 173.777344 L 325.421875 173.609375 L 326.058594 173.273438 C 326.480469 173.046875 326.902344 172.824219 327.328125 172.59375 C 329.003906 171.660156 330.675781 170.710938 332.296875 169.683594 L 333.515625 168.917969 L 334.71875 168.125 C 335.527344 167.605469 336.304688 167.039062 337.09375 166.496094 C 337.492188 166.230469 337.867188 165.933594 338.257812 165.65625 L 339.421875 164.804688 L 340.558594 163.925781 C 340.9375 163.628906 341.324219 163.347656 341.691406 163.039062 C 344.6875 160.636719 347.539062 158.074219 350.242188 155.351562 L 350.5 155.097656 L 350.746094 154.835938 L 351.246094 154.316406 L 352.242188 153.277344 L 353.210938 152.214844 C 353.53125 151.859375 353.863281 151.511719 354.171875 151.144531 L 355.113281 150.054688 C 355.273438 149.867188 355.429688 149.695312 355.585938 149.507812 L 356.042969 148.953125 L 356.957031 147.839844 C 357.113281 147.660156 357.257812 147.464844 357.40625 147.277344 L 357.851562 146.707031 C 360.226562 143.671875 362.425781 140.507812 364.449219 137.222656 L 366.382812 138.40625 C 364.3125 141.765625 362.066406 145 359.632812 148.105469 L 359.183594 148.683594 C 359.03125 148.875 358.882812 149.070312 358.726562 149.257812 L 357.785156 150.398438 L 357.320312 150.964844 C 357.164062 151.15625 356.996094 151.339844 356.832031 151.523438 L 355.863281 152.644531 C 355.546875 153.019531 355.207031 153.375 354.878906 153.738281 L 353.886719 154.828125 L 352.882812 155.859375 L 352.375 156.390625 L 352.117188 156.664062 L 351.855469 156.921875 C 349.089844 159.707031 346.171875 162.332031 343.109375 164.785156 C 342.734375 165.101562 342.335938 165.390625 341.949219 165.695312 L 340.785156 166.59375 L 339.597656 167.460938 C 339.199219 167.75 338.808594 168.050781 338.40625 168.324219 C 337.597656 168.878906 336.804688 169.457031 335.976562 169.988281 L 334.746094 170.804688 L 333.5 171.585938 C 331.839844 172.636719 330.132812 173.609375 328.414062 174.566406 C 327.988281 174.800781 327.546875 175.023438 327.113281 175.257812 L 326.140625 175.773438 L 325.808594 175.9375 L 324.488281 176.59375 C 324.269531 176.703125 324.050781 176.820312 323.828125 176.921875 L 323.160156 177.234375 L 321.835938 177.863281 C 321.386719 178.066406 320.9375 178.257812 320.484375 178.460938 L 319.808594 178.761719 L 319.472656 178.910156 L 319.128906 179.046875 L 317.765625 179.609375 C 317.539062 179.703125 317.3125 179.800781 317.085938 179.890625 L 316.394531 180.152344 L 315.019531 180.683594 C 314.558594 180.851562 314.089844 181.011719 313.628906 181.179688 L 312.585938 181.554688 L 312.230469 181.664062 C 308.5 182.925781 304.707031 183.972656 300.859375 184.8125 C 297.007812 185.636719 293.121094 186.238281 289.199219 186.625 C 273.535156 188.15625 257.570312 186.039062 242.917969 180.382812 C 242.6875 180.292969 242.457031 180.207031 242.230469 180.121094 L 241.546875 179.84375 L 240.171875 179.285156 C 239.945312 179.195312 239.71875 179.097656 239.496094 178.996094 L 238.820312 178.703125 C 238.371094 178.503906 237.917969 178.3125 237.46875 178.113281 L 236.136719 177.492188 C 235.695312 177.28125 235.242188 177.085938 234.808594 176.863281 L 233.488281 176.203125 C 233.269531 176.09375 233.050781 175.988281 232.832031 175.878906 L 232.179688 175.53125 L 230.875 174.839844 C 230.769531 174.78125 230.65625 174.726562 230.550781 174.667969 L 230.234375 174.488281 L 229.589844 174.125 L 228.300781 173.402344 L 227.027344 172.644531 L 226.394531 172.265625 L 226.082031 172.074219 L 183.828125 146.164062 L 183.613281 146.03125 L 183.15625 145.753906 L 182.238281 145.207031 L 180.394531 144.113281 L 178.527344 143.0625 L 177.59375 142.539062 L 177.128906 142.277344 L 176.652344 142.023438 L 174.757812 141.019531 L 173.8125 140.519531 L 172.851562 140.042969 L 170.929688 139.085938 L 170.449219 138.847656 L 169.964844 138.621094 L 168.992188 138.167969 C 158.570312 133.269531 147.722656 129.648438 136.453125 127.304688 L 135.398438 127.085938 L 134.339844 126.882812 L 132.230469 126.484375 C 131.878906 126.414062 131.523438 126.363281 131.171875 126.300781 L 130.109375 126.128906 L 129.050781 125.957031 C 128.695312 125.898438 128.34375 125.835938 127.988281 125.789062 L 125.859375 125.496094 L 124.792969 125.347656 C 124.4375 125.304688 124.082031 125.265625 123.726562 125.222656 L 121.59375 124.980469 C 121.414062 124.960938 121.238281 124.941406 121.058594 124.921875 L 120.515625 124.875 L 119.460938 124.773438 C 113.75 124.253906 108.03125 124.074219 102.300781 124.226562 C 96.574219 124.378906 90.875 124.851562 85.203125 125.652344 C 79.535156 126.464844 73.929688 127.59375 68.386719 129.035156 L 67.867188 129.171875 L 67.351562 129.3125 L 66.320312 129.601562 C 65.628906 129.792969 64.945312 129.980469 64.253906 130.179688 L 62.199219 130.800781 L 61.175781 131.113281 C 60.832031 131.222656 60.492188 131.335938 60.15625 131.449219 L 58.121094 132.121094 C 57.945312 132.175781 57.777344 132.234375 57.609375 132.292969 L 57.105469 132.472656 L 56.09375 132.832031 C 55.421875 133.074219 54.746094 133.308594 54.078125 133.558594 L 52.074219 134.328125 L 51.074219 134.714844 C 50.742188 134.847656 50.410156 134.984375 50.082031 135.121094 L 48.097656 135.9375 C 47.765625 136.074219 47.4375 136.21875 47.109375 136.359375 L 45.148438 137.226562 C 44.824219 137.375 44.492188 137.511719 44.167969 137.667969 L 42.222656 138.578125 L 41.253906 139.03125 L 40.292969 139.507812 L 38.367188 140.472656 C 38.046875 140.628906 37.730469 140.796875 37.414062 140.964844 L 36.464844 141.464844 C 28.84375 145.484375 21.628906 150.136719 14.820312 155.425781 C 8.015625 160.710938 1.722656 166.546875 -4.058594 172.941406 C -5.035156 173.988281 -5.957031 175.082031 -6.894531 176.164062 C -7.367188 176.703125 -7.820312 177.257812 -8.273438 177.808594 L -9.640625 179.46875 C -10.089844 180.023438 -10.523438 180.59375 -10.96875 181.152344 L -11.628906 182 C -11.847656 182.28125 -12.074219 182.558594 -12.285156 182.847656 L -13.5625 184.566406 L -14.203125 185.425781 C -14.308594 185.570312 -14.414062 185.714844 -14.515625 185.863281 L -14.824219 186.300781 L -16.058594 188.054688 C -16.261719 188.347656 -16.472656 188.636719 -16.667969 188.933594 L -17.265625 189.824219 L -18.453125 191.609375 C -18.652344 191.902344 -18.839844 192.207031 -19.03125 192.507812 L -19.601562 193.414062 L -20.734375 195.210938 L -31.144531 212.1875 Z M -31.148438 212.1875 "/></g></g></g><g clip-rule="nonzero" clip-path="url(#c356e69a70)"><g clip-rule="nonzero" clip-path="url(#534f0a817a)"><g clip-rule="nonzero" clip-path="url(#9a35193628)"><path style=" stroke:none;fill-rule:nonzero;fill:#f7c90d;fill-opacity:1;" d="M -9.46875 225.480469 L -13.101562 223.253906 L -2.859375 206.554688 L 0.773438 208.78125 Z M 6.765625 199.832031 L 3.332031 197.3125 C 7.265625 191.949219 11.59375 186.925781 16.316406 182.238281 L 19.316406 185.261719 C 14.75 189.792969 10.570312 194.648438 6.765625 199.832031 Z M 27.269531 178.027344 L 24.550781 174.753906 C 29.671875 170.5 35.09375 166.671875 40.816406 163.273438 L 42.992188 166.9375 C 37.460938 170.222656 32.222656 173.921875 27.269531 178.027344 Z M 52.472656 161.847656 L 50.632812 158.003906 C 56.628906 155.121094 62.8125 152.71875 69.183594 150.796875 L 70.410156 154.875 C 64.253906 156.734375 58.273438 159.058594 52.476562 161.847656 Z M 80.835938 152.21875 L 79.964844 148.054688 C 86.476562 146.691406 93.050781 145.84375 99.695312 145.503906 L 99.914062 149.757812 C 93.492188 150.085938 87.132812 150.90625 80.835938 152.222656 Z M 110.667969 149.675781 L 110.824219 145.417969 C 117.46875 145.664062 124.054688 146.425781 130.578125 147.703125 L 129.761719 151.882812 C 123.453125 150.648438 117.089844 149.917969 110.667969 149.683594 Z M 140.214844 154.414062 L 141.398438 150.320312 C 147.789062 152.171875 153.996094 154.507812 160.019531 157.332031 L 158.210938 161.1875 C 152.390625 158.460938 146.390625 156.207031 140.214844 154.417969 Z M 167.746094 166.171875 L 169.878906 162.484375 C 170.816406 163.027344 171.761719 163.589844 172.683594 164.15625 L 186.648438 172.71875 L 184.421875 176.351562 L 170.460938 167.789062 C 169.5625 167.25 168.652344 166.703125 167.746094 166.179688 Z M 210.457031 192.316406 L 193.757812 182.078125 L 195.984375 178.445312 L 212.683594 188.6875 Z M 220.046875 197.875 L 222.03125 194.109375 C 227.71875 197.109375 233.605469 199.648438 239.6875 201.730469 L 238.3125 205.757812 C 232.019531 203.609375 225.929688 200.984375 220.046875 197.882812 Z M 249 208.890625 L 250.011719 204.753906 C 256.261719 206.285156 262.589844 207.320312 269.003906 207.859375 L 268.648438 212.101562 C 262.011719 211.546875 255.464844 210.472656 249 208.890625 Z M 279.773438 212.542969 L 279.753906 208.285156 C 286.1875 208.257812 292.582031 207.730469 298.933594 206.707031 L 299.609375 210.910156 C 293.039062 211.96875 286.429688 212.515625 279.773438 212.542969 Z M 310.511719 208.667969 L 309.472656 204.539062 C 315.710938 202.96875 321.785156 200.925781 327.703125 198.410156 L 329.371094 202.332031 C 323.25 204.929688 316.960938 207.042969 310.511719 208.667969 Z M 339.410156 197.53125 L 337.410156 193.773438 C 343.082031 190.753906 348.484375 187.308594 353.617188 183.441406 L 356.179688 186.84375 C 350.867188 190.84375 345.277344 194.410156 339.410156 197.535156 Z M 364.765625 179.757812 L 361.914062 176.59375 C 366.683594 172.285156 371.09375 167.632812 375.136719 162.636719 L 378.445312 165.3125 C 374.265625 170.484375 369.703125 175.300781 364.765625 179.757812 Z M 385.058594 156.359375 L 381.523438 153.976562 C 382.519531 152.5 383.503906 150.980469 384.441406 149.453125 L 388.070312 151.679688 C 387.101562 153.257812 386.089844 154.832031 385.058594 156.363281 Z M 385.058594 156.359375 "/></g></g></g></g></svg>