<svg xmlns="http://www.w3.org/2000/svg" xmlns:xlink="http://www.w3.org/1999/xlink" width="500" zoomAndPan="magnify" viewBox="0 0 375 374.999991" height="500" preserveAspectRatio="xMidYMid meet" version="1.2"><defs><clipPath id="8c568949ca"><path d="M 4.269531 63.921875 L 374.769531 63.921875 L 374.769531 311.421875 L 4.269531 311.421875 Z M 4.269531 63.921875 "/></clipPath><clipPath id="b2fd313b6a"><path d="M 40 63.921875 L 374.769531 63.921875 L 374.769531 311.421875 L 40 311.421875 Z M 40 63.921875 "/></clipPath><clipPath id="bb4a6cf709"><path d="M 4.269531 63.921875 L 374.769531 63.921875 L 374.769531 311.421875 L 4.269531 311.421875 Z M 4.269531 63.921875 "/></clipPath><clipPath id="45ab72e032"><path d="M 6 63.921875 L 374.769531 63.921875 L 374.769531 311.421875 L 6 311.421875 Z M 6 63.921875 "/></clipPath></defs><g id="6fa81fbb60"><g clip-rule="nonzero" clip-path="url(#8c568949ca)"><path style=" stroke:none;fill-rule:nonzero;fill:#4d4d4d;fill-opacity:1;" d="M 52.585938 381.011719 L -33.402344 381.011719 L -33.402344 354.554688 L -33.371094 351.566406 L -33.347656 350.0625 C -33.347656 349.5625 -33.339844 349.058594 -33.316406 348.554688 L -33.203125 345.539062 L -33.144531 344.03125 C -33.128906 343.53125 -33.085938 343.027344 -33.058594 342.527344 L -32.867188 339.511719 L -32.820312 338.757812 C -32.800781 338.507812 -32.785156 338.253906 -32.761719 338.003906 L -32.628906 336.5 L -32.359375 333.488281 C -32.320312 332.984375 -32.253906 332.484375 -32.199219 331.984375 L -32.035156 330.480469 C -31.917969 329.480469 -31.8125 328.476562 -31.679688 327.476562 L -31.261719 324.480469 C -31.121094 323.480469 -30.988281 322.480469 -30.816406 321.484375 C -30.484375 319.496094 -30.167969 317.5 -29.78125 315.519531 C -27.539062 303.578125 -24.28125 291.921875 -19.996094 280.550781 C -15.710938 269.179688 -10.46875 258.273438 -4.269531 247.820312 L -3.5 246.527344 C -3.242188 246.09375 -2.984375 245.660156 -2.714844 245.234375 L -1.113281 242.667969 L -0.304688 241.386719 L 0.523438 240.121094 L 2.1875 237.597656 C 2.460938 237.171875 2.757812 236.765625 3.039062 236.347656 L 4.765625 233.863281 C 5.050781 233.445312 5.339844 233.035156 5.636719 232.628906 L 7.417969 230.183594 C 7.714844 229.777344 8.011719 229.375 8.3125 228.964844 L 9.230469 227.765625 L 11.070312 225.367188 C 11.6875 224.570312 12.328125 223.792969 12.957031 223.003906 L 13.90625 221.828125 L 14.382812 221.242188 C 14.542969 221.042969 14.707031 220.855469 14.867188 220.660156 L 16.816406 218.351562 C 17.140625 217.96875 17.464844 217.582031 17.796875 217.199219 L 18.800781 216.070312 L 20.808594 213.804688 C 21.480469 213.058594 22.175781 212.328125 22.859375 211.585938 L 23.890625 210.480469 L 24.40625 209.929688 L 24.929688 209.386719 C 30.527344 203.570312 36.429688 198.085938 42.640625 192.929688 C 48.871094 187.789062 55.367188 183.015625 62.136719 178.617188 C 68.910156 174.210938 75.914062 170.214844 83.15625 166.628906 L 84.511719 165.957031 L 85.191406 165.621094 C 85.417969 165.511719 85.644531 165.40625 85.875 165.296875 L 88.625 164.015625 C 89.082031 163.804688 89.539062 163.585938 89.996094 163.378906 L 91.382812 162.769531 L 94.160156 161.558594 C 94.621094 161.351562 95.09375 161.167969 95.558594 160.972656 L 96.960938 160.398438 L 98.363281 159.828125 C 98.832031 159.636719 99.300781 159.445312 99.773438 159.265625 L 102.605469 158.1875 L 104.019531 157.652344 L 105.449219 157.144531 C 120.726562 151.65625 136.429688 148.019531 152.5625 146.226562 L 154.066406 146.066406 L 154.816406 145.980469 L 155.570312 145.914062 L 158.578125 145.644531 L 160.085938 145.515625 L 161.59375 145.414062 L 164.605469 145.226562 L 165.363281 145.179688 L 166.113281 145.148438 L 167.625 145.089844 L 170.636719 144.980469 L 173.652344 144.933594 L 175.160156 144.914062 L 242.535156 144.914062 L 243.433594 144.902344 L 245.230469 144.882812 L 247.019531 144.8125 L 247.917969 144.78125 L 248.363281 144.765625 C 248.515625 144.765625 248.664062 144.746094 248.8125 144.738281 L 250.589844 144.621094 L 251.484375 144.566406 C 251.78125 144.546875 252.078125 144.515625 252.375 144.488281 L 254.152344 144.328125 C 254.746094 144.285156 255.335938 144.203125 255.929688 144.136719 L 257.707031 143.9375 L 259.476562 143.691406 L 260.359375 143.566406 C 260.652344 143.527344 260.949219 143.488281 261.242188 143.4375 L 263 143.144531 L 263.878906 143 C 264.171875 142.949219 264.460938 142.886719 264.753906 142.839844 C 269.425781 141.96875 274.03125 140.835938 278.574219 139.445312 C 283.113281 138.035156 287.554688 136.371094 291.902344 134.449219 L 292.71875 134.097656 C 292.992188 133.976562 293.257812 133.84375 293.527344 133.722656 L 295.144531 132.96875 L 295.546875 132.78125 L 295.945312 132.582031 L 296.746094 132.183594 L 298.339844 131.390625 L 299.914062 130.558594 L 300.703125 130.144531 C 300.96875 130.007812 301.222656 129.855469 301.484375 129.710938 C 302.519531 129.125 303.566406 128.5625 304.582031 127.945312 L 306.117188 127.039062 L 307.632812 126.089844 C 308.652344 125.476562 309.628906 124.796875 310.628906 124.152344 C 311.132812 123.828125 311.613281 123.480469 312.105469 123.144531 L 313.570312 122.125 L 315.011719 121.074219 C 315.5 120.722656 315.984375 120.378906 316.449219 120.007812 C 324.09375 114.238281 330.976562 107.667969 337.09375 100.296875 L 337.382812 99.957031 L 337.660156 99.609375 L 338.222656 98.914062 C 338.59375 98.445312 338.972656 97.988281 339.339844 97.519531 L 340.429688 96.101562 L 340.972656 95.394531 C 341.15625 95.15625 341.324219 94.90625 341.5 94.671875 L 342.554688 93.230469 L 342.820312 92.871094 L 343.070312 92.5 L 343.589844 91.730469 C 343.925781 91.246094 344.273438 90.761719 344.605469 90.261719 L 345.585938 88.769531 L 346.070312 88.027344 C 346.230469 87.777344 346.394531 87.523438 346.542969 87.269531 L 347.488281 85.757812 L 347.726562 85.378906 L 347.953125 84.992188 L 348.40625 84.226562 C 348.707031 83.714844 349.015625 83.203125 349.3125 82.691406 C 350.476562 80.617188 351.625 78.535156 352.671875 76.398438 L 353.464844 74.804688 L 354.214844 73.1875 C 354.734375 72.117188 355.1875 71.019531 355.671875 69.9375 C 355.917969 69.394531 356.128906 68.84375 356.355469 68.292969 L 357.03125 66.648438 L 357.664062 64.980469 C 357.871094 64.425781 358.09375 63.878906 358.285156 63.3125 C 359.886719 58.84375 361.234375 54.296875 362.324219 49.671875 L 362.429688 49.242188 L 362.523438 48.804688 L 362.710938 47.933594 L 363.089844 46.195312 L 363.425781 44.445312 C 363.535156 43.863281 363.660156 43.28125 363.746094 42.695312 L 364.039062 40.933594 C 364.085938 40.640625 364.140625 40.347656 364.183594 40.054688 L 364.304688 39.171875 L 364.554688 37.414062 C 364.601562 37.121094 364.628906 36.824219 364.664062 36.527344 L 364.765625 35.636719 C 365.308594 30.886719 365.585938 26.121094 365.59375 21.339844 L 451.578125 21.339844 C 451.570312 29.402344 451.105469 37.433594 450.1875 45.441406 L 450.015625 46.945312 C 449.957031 47.445312 449.902344 47.949219 449.832031 48.445312 L 449.414062 51.445312 L 449.199219 52.941406 C 449.128906 53.441406 449.039062 53.9375 448.960938 54.4375 L 448.464844 57.425781 C 448.304688 58.421875 448.109375 59.410156 447.921875 60.402344 L 447.351562 63.378906 C 447.144531 64.367188 446.925781 65.351562 446.710938 66.339844 L 446.386719 67.820312 L 446.226562 68.5625 L 446.050781 69.296875 C 444.195312 77.171875 441.898438 84.917969 439.15625 92.53125 C 438.832031 93.484375 438.457031 94.425781 438.101562 95.371094 L 437.027344 98.199219 L 435.882812 101.003906 C 435.5 101.9375 435.125 102.875 434.714844 103.800781 C 433.90625 105.648438 433.113281 107.515625 432.246094 109.332031 L 430.960938 112.078125 C 430.519531 112.988281 430.066406 113.890625 429.617188 114.796875 C 427.832031 118.417969 425.902344 121.960938 423.910156 125.472656 C 423.40625 126.347656 422.886719 127.214844 422.375 128.082031 L 421.605469 129.386719 L 421.21875 130.03125 L 420.816406 130.679688 L 419.214844 133.246094 C 418.949219 133.671875 418.683594 134.101562 418.40625 134.523438 L 417.578125 135.789062 L 415.910156 138.316406 C 415.347656 139.152344 414.769531 139.976562 414.195312 140.804688 L 413.332031 142.046875 L 412.902344 142.667969 L 412.457031 143.28125 L 410.675781 145.726562 C 410.378906 146.132812 410.085938 146.535156 409.78125 146.941406 L 408.863281 148.144531 L 407.019531 150.542969 C 406.398438 151.332031 405.761719 152.117188 405.128906 152.902344 L 404.183594 154.078125 L 403.703125 154.664062 L 403.21875 155.242188 C 392.871094 167.699219 381.230469 178.808594 368.304688 188.566406 C 367.511719 189.183594 366.691406 189.773438 365.882812 190.371094 L 363.4375 192.148438 L 360.953125 193.875 C 360.121094 194.445312 359.300781 195.03125 358.453125 195.578125 C 356.769531 196.6875 355.097656 197.8125 353.375 198.867188 L 350.808594 200.46875 L 348.207031 202.011719 C 346.476562 203.054688 344.707031 204.027344 342.945312 205.011719 C 342.503906 205.253906 342.066406 205.507812 341.621094 205.742188 L 340.28125 206.449219 L 337.601562 207.859375 C 336.703125 208.316406 335.796875 208.761719 334.894531 209.210938 L 333.535156 209.886719 L 332.855469 210.21875 L 332.171875 210.542969 L 329.421875 211.828125 C 328.964844 212.035156 328.511719 212.257812 328.046875 212.457031 L 326.660156 213.070312 C 319.261719 216.339844 311.695312 219.171875 303.96875 221.566406 C 296.238281 223.945312 288.394531 225.875 280.441406 227.355469 C 279.945312 227.449219 279.449219 227.546875 278.953125 227.636719 L 277.460938 227.882812 L 274.472656 228.371094 C 273.972656 228.457031 273.476562 228.53125 272.976562 228.597656 L 271.476562 228.804688 C 270.476562 228.945312 269.480469 229.089844 268.476562 229.21875 L 265.472656 229.5625 C 264.472656 229.675781 263.46875 229.800781 262.464844 229.886719 L 259.457031 230.15625 C 258.953125 230.199219 258.453125 230.246094 257.949219 230.285156 L 256.441406 230.382812 L 253.425781 230.570312 C 253.175781 230.585938 252.925781 230.605469 252.675781 230.613281 L 251.921875 230.644531 L 250.414062 230.703125 L 247.398438 230.8125 L 244.382812 230.855469 L 242.875 230.875 L 176.5625 230.875 L 172.863281 230.917969 L 171.070312 230.988281 L 170.175781 231.019531 L 169.726562 231.035156 L 169.28125 231.066406 L 167.503906 231.179688 L 166.609375 231.234375 L 165.71875 231.316406 L 163.941406 231.476562 L 163.496094 231.515625 L 163.050781 231.570312 L 162.164062 231.671875 C 152.679688 232.71875 143.445312 234.859375 134.464844 238.085938 L 133.625 238.382812 L 132.796875 238.703125 L 131.128906 239.335938 C 130.851562 239.433594 130.578125 239.554688 130.304688 239.65625 L 129.480469 239.996094 L 128.65625 240.332031 C 128.382812 240.445312 128.105469 240.550781 127.832031 240.671875 L 126.203125 241.386719 L 125.386719 241.742188 C 125.117188 241.863281 124.851562 241.996094 124.578125 242.121094 L 122.960938 242.871094 C 122.828125 242.933594 122.691406 242.996094 122.558594 243.0625 L 122.160156 243.261719 L 121.363281 243.65625 C 117.09375 245.765625 112.964844 248.121094 108.976562 250.71875 C 104.976562 253.320312 101.140625 256.136719 97.460938 259.171875 C 93.785156 262.222656 90.292969 265.46875 86.980469 268.910156 L 86.667969 269.234375 L 86.363281 269.558594 L 85.753906 270.214844 C 85.351562 270.652344 84.9375 271.078125 84.539062 271.523438 L 83.355469 272.863281 L 82.761719 273.527344 C 82.5625 273.753906 82.375 273.984375 82.183594 274.210938 L 81.027344 275.574219 C 80.929688 275.691406 80.832031 275.800781 80.738281 275.917969 L 80.460938 276.269531 L 79.898438 276.964844 C 79.53125 277.429688 79.148438 277.886719 78.78125 278.359375 L 77.695312 279.777344 L 77.148438 280.484375 C 76.972656 280.722656 76.800781 280.96875 76.625 281.207031 L 75.570312 282.648438 C 75.390625 282.886719 75.222656 283.136719 75.054688 283.378906 L 74.039062 284.847656 C 73.875 285.09375 73.691406 285.332031 73.53125 285.582031 L 72.550781 287.074219 L 72.066406 287.820312 C 71.90625 288.070312 71.753906 288.324219 71.59375 288.578125 L 70.640625 290.089844 C 70.480469 290.339844 70.328125 290.59375 70.179688 290.851562 L 69.730469 291.621094 C 64.863281 299.828125 61.007812 308.488281 58.160156 317.59375 C 56.753906 322.132812 55.609375 326.738281 54.730469 331.410156 C 54.488281 332.570312 54.324219 333.75 54.117188 334.917969 C 54.011719 335.503906 53.9375 336.09375 53.855469 336.683594 L 53.609375 338.449219 C 53.527344 339.039062 53.472656 339.632812 53.402344 340.226562 L 53.300781 341.117188 C 53.269531 341.410156 53.222656 341.707031 53.203125 342.003906 L 53.042969 343.78125 L 52.960938 344.671875 C 52.945312 344.820312 52.933594 344.96875 52.925781 345.117188 L 52.898438 345.566406 L 52.785156 347.351562 C 52.769531 347.648438 52.742188 347.945312 52.734375 348.246094 L 52.703125 349.140625 L 52.632812 350.933594 C 52.613281 351.230469 52.617188 351.53125 52.613281 351.828125 L 52.605469 352.726562 L 52.578125 354.550781 L 52.578125 381.007812 Z M 52.585938 381.011719 "/></g><g clip-rule="nonzero" clip-path="url(#b2fd313b6a)"><path style=" stroke:none;fill-rule:nonzero;fill:#fdd504;fill-opacity:1;" d="M 43.5625 381.011719 L 40.550781 381.011719 L 40.550781 354.554688 L 40.578125 352.566406 L 40.585938 351.582031 C 40.585938 351.261719 40.585938 350.925781 40.605469 350.601562 L 40.683594 348.636719 L 40.71875 347.65625 C 40.726562 347.332031 40.757812 347.007812 40.777344 346.675781 L 40.902344 344.71875 L 40.929688 344.234375 C 40.9375 344.070312 40.953125 343.910156 40.96875 343.746094 L 41.054688 342.777344 L 41.226562 340.824219 C 41.25 340.5 41.300781 340.179688 41.332031 339.855469 L 41.445312 338.886719 C 41.523438 338.238281 41.585938 337.589844 41.671875 336.945312 L 41.945312 335.003906 C 42.035156 334.359375 42.117188 333.710938 42.234375 333.066406 C 42.453125 331.773438 42.640625 330.488281 42.90625 329.210938 C 43.871094 324.082031 45.125 319.023438 46.671875 314.039062 C 49.800781 304.039062 54.03125 294.53125 59.371094 285.515625 L 59.871094 284.671875 C 60.03125 284.390625 60.195312 284.109375 60.375 283.832031 L 61.414062 282.171875 L 61.933594 281.34375 L 62.472656 280.535156 L 63.546875 278.894531 C 63.722656 278.621094 63.917969 278.359375 64.101562 278.089844 L 65.21875 276.472656 C 65.402344 276.203125 65.589844 275.933594 65.785156 275.671875 L 66.941406 274.089844 C 67.132812 273.824219 67.320312 273.558594 67.515625 273.296875 L 68.113281 272.519531 L 69.304688 270.964844 C 69.707031 270.449219 70.125 269.945312 70.53125 269.4375 L 71.144531 268.671875 L 71.453125 268.289062 C 71.554688 268.160156 71.664062 268.039062 71.777344 267.914062 L 73.042969 266.417969 C 73.253906 266.167969 73.464844 265.917969 73.675781 265.667969 L 74.324219 264.9375 L 75.617188 263.46875 C 76.054688 262.984375 76.507812 262.511719 76.949219 262.03125 L 77.617188 261.3125 L 77.949219 260.953125 L 78.292969 260.601562 C 81.921875 256.832031 85.746094 253.277344 89.769531 249.933594 C 93.808594 246.605469 98.019531 243.515625 102.402344 240.660156 C 106.78125 237.808594 111.316406 235.226562 116 232.910156 L 116.875 232.476562 L 117.316406 232.257812 C 117.460938 232.1875 117.609375 232.121094 117.757812 232.050781 L 119.535156 231.222656 C 119.832031 231.085938 120.125 230.945312 120.421875 230.808594 L 121.316406 230.417969 L 123.109375 229.632812 C 123.40625 229.5 123.710938 229.382812 124.011719 229.257812 L 124.914062 228.890625 L 125.832031 228.496094 C 126.132812 228.371094 126.433594 228.242188 126.738281 228.132812 L 129.480469 227.089844 L 130.402344 226.765625 C 140.265625 223.21875 150.402344 220.871094 160.820312 219.71875 L 161.789062 219.609375 L 162.273438 219.550781 L 162.757812 219.507812 L 164.710938 219.335938 L 165.683594 219.25 L 166.660156 219.1875 L 168.617188 219.0625 L 169.105469 219.03125 L 169.589844 219.011719 L 170.570312 218.976562 L 172.535156 218.902344 L 176.542969 218.851562 L 242.8125 218.851562 L 244.234375 218.835938 L 247.078125 218.796875 L 249.921875 218.691406 L 252.054688 218.609375 C 252.289062 218.597656 252.527344 218.582031 252.765625 218.566406 L 255.609375 218.386719 L 257.027344 218.296875 C 257.503906 218.261719 257.976562 218.214844 258.449219 218.175781 L 261.289062 217.921875 C 262.234375 217.847656 263.179688 217.726562 264.121094 217.621094 L 266.957031 217.300781 C 267.898438 217.179688 268.839844 217.039062 269.78125 216.910156 L 271.195312 216.710938 C 271.664062 216.644531 272.136719 216.582031 272.605469 216.5 L 275.417969 216.035156 L 276.828125 215.800781 C 277.296875 215.714844 277.761719 215.625 278.230469 215.535156 C 285.730469 214.136719 293.132812 212.3125 300.425781 210.066406 C 307.707031 207.808594 314.832031 205.140625 321.804688 202.058594 L 323.113281 201.484375 C 323.550781 201.292969 323.976562 201.085938 324.40625 200.890625 L 326.992188 199.679688 L 327.640625 199.378906 L 328.289062 199.054688 L 329.566406 198.421875 C 330.417969 197.996094 331.273438 197.574219 332.117188 197.144531 L 334.644531 195.8125 L 335.90625 195.148438 C 336.328125 194.929688 336.738281 194.6875 337.15625 194.460938 C 338.816406 193.53125 340.484375 192.613281 342.113281 191.632812 L 344.566406 190.179688 L 346.988281 188.667969 C 348.605469 187.675781 350.1875 186.613281 351.777344 185.570312 C 352.578125 185.054688 353.347656 184.5 354.132812 183.964844 L 356.472656 182.335938 L 358.78125 180.65625 C 359.546875 180.097656 360.316406 179.539062 361.066406 178.957031 C 367.132812 174.363281 372.917969 169.445312 378.429688 164.195312 C 383.921875 158.9375 389.105469 153.386719 393.972656 147.546875 L 394.433594 147 L 394.882812 146.445312 L 395.777344 145.335938 C 396.371094 144.597656 396.972656 143.859375 397.554688 143.113281 L 399.289062 140.851562 L 400.15625 139.71875 C 400.445312 139.34375 400.71875 138.953125 401 138.570312 L 402.679688 136.265625 L 403.101562 135.691406 L 403.507812 135.105469 L 404.316406 133.933594 C 404.855469 133.152344 405.402344 132.375 405.933594 131.585938 L 407.5 129.207031 L 408.285156 128.015625 C 408.546875 127.617188 408.789062 127.207031 409.042969 126.808594 L 410.554688 124.382812 L 410.929688 123.777344 L 411.296875 123.164062 L 412.023438 121.9375 C 412.507812 121.117188 412.992188 120.300781 413.46875 119.480469 C 415.339844 116.167969 417.164062 112.828125 418.847656 109.414062 C 419.269531 108.5625 419.699219 107.710938 420.113281 106.855469 L 421.324219 104.269531 C 422.144531 102.550781 422.886719 100.796875 423.652344 99.054688 C 424.039062 98.1875 424.390625 97.300781 424.753906 96.421875 L 425.832031 93.777344 L 426.847656 91.109375 C 427.183594 90.214844 427.535156 89.332031 427.84375 88.433594 C 430.425781 81.257812 432.589844 73.960938 434.335938 66.542969 L 434.5 65.847656 L 434.660156 65.148438 L 434.964844 63.753906 C 435.167969 62.824219 435.371094 61.894531 435.566406 60.964844 L 436.105469 58.160156 C 436.28125 57.226562 436.472656 56.292969 436.621094 55.351562 L 437.085938 52.539062 C 437.160156 52.066406 437.246094 51.601562 437.3125 51.128906 L 437.511719 49.71875 L 437.90625 46.890625 C 437.976562 46.421875 438.023438 45.949219 438.082031 45.476562 L 438.242188 44.0625 C 439.109375 36.507812 439.546875 28.933594 439.554688 21.332031 L 442.5625 21.332031 C 442.554688 29.050781 442.109375 36.746094 441.230469 44.414062 L 441.070312 45.851562 C 441.011719 46.335938 440.964844 46.8125 440.894531 47.289062 L 440.492188 50.15625 L 440.289062 51.589844 C 440.222656 52.066406 440.136719 52.542969 440.0625 53.019531 L 439.589844 55.878906 C 439.4375 56.832031 439.242188 57.78125 439.066406 58.730469 L 438.519531 61.574219 C 438.320312 62.519531 438.113281 63.464844 437.90625 64.410156 L 437.597656 65.824219 L 437.4375 66.535156 L 437.265625 67.238281 C 435.492188 74.773438 433.292969 82.183594 430.667969 89.46875 C 430.351562 90.382812 429.996094 91.28125 429.65625 92.1875 L 428.621094 94.890625 L 427.527344 97.574219 C 427.160156 98.46875 426.804688 99.367188 426.410156 100.25 C 425.628906 102.019531 424.878906 103.800781 424.042969 105.542969 L 422.816406 108.167969 C 422.394531 109.035156 421.960938 109.898438 421.53125 110.765625 C 419.820312 114.230469 417.976562 117.621094 416.070312 120.984375 C 415.585938 121.820312 415.09375 122.648438 414.601562 123.480469 L 413.863281 124.726562 L 413.496094 125.351562 L 413.113281 125.964844 L 411.582031 128.429688 C 411.324219 128.835938 411.074219 129.25 410.808594 129.652344 L 410.015625 130.863281 L 408.421875 133.289062 C 407.882812 134.085938 407.328125 134.875 406.78125 135.671875 L 405.953125 136.859375 L 405.542969 137.453125 L 405.117188 138.039062 L 403.410156 140.378906 C 403.125 140.765625 402.84375 141.160156 402.550781 141.542969 L 401.671875 142.691406 L 399.910156 144.988281 C 399.3125 145.746094 398.703125 146.492188 398.101562 147.25 L 397.191406 148.382812 L 396.738281 148.941406 L 396.273438 149.496094 C 386.367188 161.417969 375.230469 172.050781 362.863281 181.390625 C 362.101562 181.984375 361.320312 182.546875 360.542969 183.117188 L 358.203125 184.820312 L 355.824219 186.472656 C 355.03125 187.019531 354.246094 187.578125 353.433594 188.105469 C 351.820312 189.164062 350.222656 190.242188 348.574219 191.25 L 346.117188 192.785156 L 343.625 194.261719 C 341.972656 195.257812 340.277344 196.1875 338.59375 197.128906 C 338.167969 197.363281 337.753906 197.605469 337.324219 197.828125 L 336.042969 198.507812 L 333.480469 199.855469 C 332.621094 200.292969 331.753906 200.71875 330.894531 201.148438 L 329.601562 201.796875 L 328.953125 202.117188 L 328.296875 202.425781 L 325.671875 203.652344 C 325.234375 203.855469 324.800781 204.066406 324.355469 204.257812 L 323.03125 204.84375 C 315.949219 207.972656 308.714844 210.679688 301.320312 212.972656 C 293.921875 215.246094 286.421875 217.09375 278.8125 218.511719 C 278.335938 218.601562 277.863281 218.691406 277.386719 218.777344 L 275.957031 219.015625 L 273.101562 219.488281 C 272.625 219.570312 272.144531 219.636719 271.667969 219.703125 L 270.234375 219.90625 C 269.277344 220.039062 268.320312 220.175781 267.363281 220.300781 L 264.488281 220.625 C 263.53125 220.730469 262.574219 220.851562 261.609375 220.929688 L 258.726562 221.183594 C 258.242188 221.226562 257.769531 221.273438 257.289062 221.308594 L 255.84375 221.402344 L 252.957031 221.582031 C 252.71875 221.597656 252.472656 221.617188 252.238281 221.625 L 251.515625 221.652344 L 250.074219 221.710938 L 247.1875 221.816406 L 244.296875 221.855469 L 242.855469 221.871094 L 176.5625 221.871094 L 172.628906 221.917969 L 170.710938 221.992188 L 169.75 222.027344 L 169.265625 222.046875 L 168.777344 222.078125 L 166.863281 222.199219 L 165.90625 222.257812 L 164.949219 222.347656 L 163.042969 222.507812 L 162.558594 222.546875 L 162.082031 222.601562 L 161.132812 222.714844 C 150.945312 223.839844 141.03125 226.132812 131.386719 229.601562 L 130.484375 229.925781 L 129.59375 230.265625 L 127.804688 230.941406 C 127.503906 231.050781 127.214844 231.179688 126.917969 231.296875 L 126.03125 231.660156 L 125.148438 232.019531 C 124.855469 232.144531 124.554688 232.253906 124.265625 232.386719 L 122.515625 233.15625 L 121.640625 233.539062 C 121.347656 233.667969 121.058594 233.808594 120.773438 233.941406 L 119.039062 234.75 C 118.894531 234.816406 118.75 234.882812 118.605469 234.953125 L 118.179688 235.167969 L 117.324219 235.59375 C 112.742188 237.855469 108.308594 240.382812 104.027344 243.171875 C 99.738281 245.960938 95.621094 248.984375 91.675781 252.238281 C 87.738281 255.507812 83.996094 258.988281 80.445312 262.675781 L 80.109375 263.019531 L 79.785156 263.371094 L 79.140625 264.070312 C 78.707031 264.542969 78.261719 265.003906 77.835938 265.476562 L 76.5625 266.914062 L 75.917969 267.628906 C 75.707031 267.871094 75.503906 268.113281 75.296875 268.359375 L 74.058594 269.816406 C 73.957031 269.9375 73.851562 270.058594 73.75 270.183594 L 73.449219 270.558594 L 72.851562 271.304688 C 72.453125 271.804688 72.042969 272.292969 71.652344 272.800781 L 70.484375 274.320312 L 69.902344 275.082031 C 69.710938 275.335938 69.523438 275.597656 69.335938 275.855469 L 68.207031 277.402344 C 68.011719 277.65625 67.832031 277.921875 67.652344 278.183594 L 67.105469 278.972656 L 66.558594 279.757812 C 66.378906 280.023438 66.191406 280.28125 66.019531 280.550781 L 64.96875 282.148438 L 64.4375 282.949219 C 64.269531 283.21875 64.101562 283.492188 63.929688 283.757812 L 62.917969 285.375 C 62.746094 285.640625 62.582031 285.917969 62.421875 286.195312 L 61.9375 287.019531 C 56.714844 295.832031 52.574219 305.128906 49.519531 314.902344 C 48.007812 319.777344 46.78125 324.722656 45.835938 329.734375 C 45.578125 330.984375 45.394531 332.246094 45.179688 333.503906 C 45.066406 334.132812 44.984375 334.765625 44.898438 335.398438 L 44.632812 337.292969 C 44.546875 337.925781 44.484375 338.5625 44.410156 339.195312 L 44.300781 340.148438 C 44.265625 340.472656 44.21875 340.78125 44.195312 341.097656 L 44.035156 343.011719 L 43.949219 343.964844 C 43.933594 344.125 43.917969 344.289062 43.910156 344.449219 L 43.882812 344.933594 L 43.761719 346.851562 C 43.742188 347.171875 43.710938 347.488281 43.703125 347.808594 L 43.671875 348.769531 L 43.597656 350.6875 C 43.578125 351.011719 43.582031 351.335938 43.578125 351.65625 L 43.566406 352.621094 L 43.539062 354.558594 L 43.539062 381.015625 Z M 43.5625 381.011719 "/></g><g clip-rule="nonzero" clip-path="url(#bb4a6cf709)"><path style=" stroke:none;fill-rule:nonzero;fill:#fdd504;fill-opacity:1;" d="M -21.367188 381.011719 L -24.378906 381.011719 L -24.378906 354.554688 L -24.347656 351.6875 L -24.328125 350.246094 C -24.328125 349.761719 -24.328125 349.28125 -24.296875 348.800781 L -24.1875 345.914062 L -24.132812 344.46875 C -24.113281 343.984375 -24.078125 343.5 -24.046875 343.027344 L -23.863281 340.144531 L -23.816406 339.421875 C -23.804688 339.179688 -23.785156 338.933594 -23.761719 338.699219 L -23.636719 337.257812 L -23.378906 334.382812 C -23.339844 333.898438 -23.277344 333.425781 -23.226562 332.945312 L -23.0625 331.507812 C -22.949219 330.546875 -22.851562 329.589844 -22.726562 328.632812 L -22.324219 325.761719 C -22.191406 324.804688 -22.0625 323.851562 -21.898438 322.898438 C -21.574219 320.996094 -21.285156 319.082031 -20.90625 317.1875 C -18.761719 305.761719 -15.640625 294.613281 -11.542969 283.734375 C -7.441406 272.855469 -2.425781 262.417969 3.507812 252.421875 L 4.246094 251.175781 C 4.488281 250.757812 4.730469 250.34375 4.992188 249.9375 L 6.527344 247.480469 L 7.296875 246.253906 L 8.089844 245.042969 L 9.683594 242.617188 C 9.945312 242.210938 10.226562 241.820312 10.5 241.421875 L 11.324219 240.234375 L 12.148438 239.042969 C 12.425781 238.648438 12.699219 238.25 12.984375 237.863281 L 14.691406 235.523438 C 14.976562 235.136719 15.257812 234.742188 15.546875 234.359375 L 16.425781 233.207031 L 18.1875 230.914062 C 18.78125 230.152344 19.390625 229.40625 19.996094 228.648438 L 20.902344 227.519531 L 21.359375 226.953125 C 21.511719 226.769531 21.667969 226.585938 21.820312 226.402344 L 23.6875 224.191406 C 24 223.824219 24.308594 223.453125 24.628906 223.089844 L 25.585938 222.007812 L 27.507812 219.84375 C 28.15625 219.128906 28.816406 218.425781 29.472656 217.71875 L 30.457031 216.664062 L 30.953125 216.132812 L 31.453125 215.613281 C 36.808594 210.054688 42.457031 204.808594 48.398438 199.882812 C 54.355469 194.964844 60.574219 190.398438 67.050781 186.1875 C 73.53125 181.96875 80.238281 178.148438 87.171875 174.71875 L 88.464844 174.070312 L 89.109375 173.746094 C 89.328125 173.644531 89.546875 173.539062 89.757812 173.4375 L 92.382812 172.210938 C 92.820312 172.007812 93.257812 171.800781 93.699219 171.601562 L 95.023438 171.019531 L 97.679688 169.859375 C 98.121094 169.664062 98.570312 169.488281 99.019531 169.300781 L 100.359375 168.753906 L 101.703125 168.203125 C 102.152344 168.023438 102.59375 167.835938 103.050781 167.667969 L 105.757812 166.636719 L 107.113281 166.121094 L 108.480469 165.636719 C 123.097656 160.386719 138.121094 156.90625 153.554688 155.191406 L 154.996094 155.03125 L 155.714844 154.953125 L 156.433594 154.886719 L 159.316406 154.628906 L 160.757812 154.503906 L 162.199219 154.410156 L 165.085938 154.226562 L 165.804688 154.183594 L 166.527344 154.15625 L 167.972656 154.097656 L 170.859375 153.992188 L 173.746094 153.949219 L 175.1875 153.929688 L 242.5625 153.929688 L 243.523438 153.917969 L 245.449219 153.894531 L 247.367188 153.820312 L 248.328125 153.785156 L 248.8125 153.769531 C 248.972656 153.769531 249.136719 153.75 249.296875 153.738281 L 251.210938 153.617188 L 252.167969 153.558594 C 252.492188 153.535156 252.808594 153.5 253.125 153.472656 L 255.035156 153.3125 C 255.679688 153.265625 256.304688 153.179688 256.941406 153.109375 L 258.84375 152.894531 C 259.476562 152.808594 260.105469 152.714844 260.738281 152.628906 L 261.6875 152.496094 C 262.003906 152.453125 262.320312 152.414062 262.632812 152.355469 L 264.519531 152.042969 L 265.464844 151.878906 C 265.789062 151.824219 266.09375 151.757812 266.402344 151.699219 C 286.46875 148.015625 305.578125 139.523438 321.890625 127.191406 C 330.09375 121.003906 337.476562 113.957031 344.039062 106.054688 L 344.351562 105.6875 L 344.652344 105.3125 L 345.25 104.566406 C 345.648438 104.066406 346.058594 103.574219 346.453125 103.074219 L 348.199219 100.789062 C 348.394531 100.539062 348.578125 100.273438 348.769531 100.019531 L 349.898438 98.472656 L 350.183594 98.085938 L 350.457031 97.691406 L 351 96.902344 C 351.363281 96.375 351.734375 95.855469 352.089844 95.328125 L 353.140625 93.726562 L 353.667969 92.925781 C 353.84375 92.660156 354.007812 92.382812 354.179688 92.117188 L 355.195312 90.5 L 355.449219 90.09375 L 355.691406 89.683594 L 356.175781 88.859375 C 356.5 88.308594 356.820312 87.761719 357.144531 87.210938 C 358.394531 84.984375 359.625 82.75 360.75 80.457031 L 361.601562 78.746094 L 362.410156 77.011719 C 362.964844 75.867188 363.453125 74.6875 363.96875 73.523438 C 364.234375 72.941406 364.457031 72.347656 364.707031 71.757812 L 365.433594 69.988281 L 366.109375 68.203125 C 366.332031 67.605469 366.574219 67.015625 366.773438 66.410156 C 368.5 61.609375 369.949219 56.726562 371.121094 51.765625 L 371.234375 51.300781 L 371.335938 50.832031 L 371.945312 48.03125 L 372.300781 46.152344 C 372.417969 45.527344 372.554688 44.902344 372.648438 44.269531 L 372.960938 42.382812 C 373.011719 42.058594 373.070312 41.757812 373.113281 41.4375 L 373.246094 40.488281 L 373.511719 38.59375 C 373.5625 38.28125 373.589844 37.960938 373.625 37.644531 L 373.734375 36.691406 C 374.316406 31.601562 374.613281 26.492188 374.621094 21.367188 L 377.632812 21.367188 C 377.625 26.605469 377.320312 31.828125 376.726562 37.035156 L 376.617188 38.003906 C 376.578125 38.328125 376.546875 38.652344 376.496094 38.976562 L 376.222656 40.914062 L 376.089844 41.886719 C 376.046875 42.207031 375.984375 42.53125 375.929688 42.855469 L 375.605469 44.796875 C 375.507812 45.441406 375.371094 46.078125 375.253906 46.71875 L 374.886719 48.640625 L 374.464844 50.507812 L 374.257812 51.464844 L 374.15625 51.949219 L 374.039062 52.421875 C 372.839844 57.5 371.359375 62.496094 369.59375 67.40625 C 369.386719 68.027344 369.140625 68.628906 368.914062 69.238281 L 368.21875 71.066406 L 367.476562 72.875 C 367.226562 73.476562 366.992188 74.085938 366.726562 74.679688 C 366.195312 75.871094 365.695312 77.078125 365.128906 78.25 L 364.304688 80.027344 L 363.433594 81.78125 C 362.28125 84.125 361.023438 86.410156 359.746094 88.6875 C 359.421875 89.25 359.082031 89.808594 358.75 90.371094 L 358.253906 91.214844 L 358.003906 91.636719 L 357.746094 92.050781 L 356.707031 93.710938 C 356.53125 93.988281 356.367188 94.269531 356.1875 94.542969 L 355.648438 95.359375 L 354.582031 96.988281 C 354.214844 97.53125 353.835938 98.0625 353.46875 98.605469 L 352.910156 99.414062 L 352.632812 99.816406 L 352.34375 100.210938 L 351.1875 101.796875 C 350.992188 102.058594 350.808594 102.328125 350.609375 102.585938 L 350.011719 103.363281 L 348.820312 104.917969 C 348.414062 105.433594 348 105.9375 347.589844 106.449219 L 346.976562 107.210938 L 346.667969 107.59375 L 346.347656 107.96875 C 342.992188 111.984375 339.429688 115.808594 335.652344 119.429688 C 331.859375 123.035156 327.878906 126.421875 323.707031 129.582031 C 307.027344 142.191406 287.472656 150.882812 266.953125 154.648438 C 266.628906 154.710938 266.304688 154.777344 265.992188 154.832031 L 265.023438 154.992188 L 263.082031 155.316406 C 262.757812 155.375 262.433594 155.417969 262.113281 155.460938 L 261.140625 155.59375 C 260.496094 155.683594 259.847656 155.78125 259.203125 155.867188 L 257.261719 156.085938 C 256.617188 156.15625 255.96875 156.25 255.320312 156.296875 L 253.371094 156.46875 C 253.046875 156.496094 252.722656 156.53125 252.398438 156.554688 L 251.417969 156.613281 L 249.460938 156.738281 C 249.300781 156.746094 249.136719 156.761719 248.976562 156.769531 L 248.492188 156.785156 L 247.511719 156.820312 L 245.546875 156.898438 L 243.582031 156.921875 L 242.597656 156.933594 L 175.214844 156.933594 L 170.949219 156.992188 L 165.972656 157.183594 L 165.261719 157.226562 L 162.417969 157.40625 L 161 157.5 L 159.578125 157.621094 L 156.742188 157.875 L 156.03125 157.9375 L 155.320312 158.019531 L 153.90625 158.179688 C 138.703125 159.871094 123.902344 163.300781 109.503906 168.472656 L 108.160156 168.960938 L 106.824219 169.464844 L 104.15625 170.480469 C 103.707031 170.640625 103.269531 170.832031 102.828125 171.007812 L 101.507812 171.550781 L 100.183594 172.089844 C 99.746094 172.273438 99.300781 172.445312 98.867188 172.640625 L 96.253906 173.785156 L 94.945312 174.355469 C 94.511719 174.554688 94.082031 174.757812 93.652344 174.957031 L 91.0625 176.164062 C 90.847656 176.265625 90.632812 176.363281 90.417969 176.46875 L 89.769531 176.792969 L 88.503906 177.410156 C 81.679688 180.789062 75.074219 184.554688 68.6875 188.707031 C 62.308594 192.855469 56.183594 197.355469 50.3125 202.199219 C 44.460938 207.054688 38.894531 212.226562 33.621094 217.707031 L 33.125 218.21875 L 32.640625 218.742188 L 31.671875 219.78125 C 31.023438 220.480469 30.378906 221.167969 29.730469 221.875 L 27.835938 224.003906 L 26.894531 225.070312 C 26.582031 225.429688 26.277344 225.796875 25.96875 226.15625 L 24.132812 228.332031 C 23.972656 228.515625 23.824219 228.695312 23.675781 228.878906 L 23.230469 229.433594 L 22.332031 230.542969 C 21.738281 231.285156 21.136719 232.019531 20.554688 232.769531 L 18.820312 235.03125 L 17.953125 236.164062 C 17.667969 236.546875 17.390625 236.929688 17.113281 237.3125 L 15.433594 239.617188 C 15.148438 240 14.878906 240.390625 14.605469 240.78125 L 13.800781 241.953125 L 12.992188 243.125 C 12.722656 243.515625 12.445312 243.902344 12.183594 244.300781 L 10.613281 246.683594 L 9.832031 247.875 L 9.070312 249.082031 L 7.5625 251.507812 C 7.308594 251.910156 7.066406 252.316406 6.824219 252.726562 L 6.097656 253.957031 C 0.253906 263.800781 -4.683594 274.082031 -8.722656 284.796875 C -12.757812 295.507812 -15.832031 306.492188 -17.941406 317.746094 C -18.316406 319.613281 -18.605469 321.492188 -18.910156 323.367188 C -19.074219 324.304688 -19.203125 325.25 -19.335938 326.191406 L -19.726562 329.015625 C -19.851562 329.957031 -19.949219 330.902344 -20.0625 331.847656 L -20.222656 333.265625 C -20.277344 333.734375 -20.335938 334.207031 -20.375 334.683594 L -20.632812 337.515625 L -20.753906 338.933594 C -20.777344 339.167969 -20.792969 339.40625 -20.808594 339.644531 L -20.855469 340.355469 L -21.035156 343.195312 C -21.0625 343.671875 -21.101562 344.144531 -21.117188 344.617188 L -21.171875 346.039062 L -21.277344 348.886719 C -21.300781 349.359375 -21.300781 349.832031 -21.308594 350.304688 L -21.328125 351.730469 L -21.359375 354.554688 L -21.359375 381.011719 Z M -21.367188 381.011719 "/></g><g clip-rule="nonzero" clip-path="url(#45ab72e032)"><path style=" stroke:none;fill-rule:nonzero;fill:#fdd504;fill-opacity:1;" d="M 12.421875 381.011719 L 6.761719 381.011719 L 6.761719 354.984375 L 12.421875 354.984375 Z M 12.992188 340.6875 L 7.355469 340.21875 C 8.089844 331.410156 9.5 322.714844 11.59375 314.125 L 17.089844 315.46875 C 15.066406 323.769531 13.703125 332.175781 12.992188 340.6875 Z M 21.078125 301.75 L 15.71875 299.929688 C 18.566406 291.558594 22.050781 283.457031 26.167969 275.632812 L 31.179688 278.269531 C 27.199219 285.832031 23.832031 293.660156 21.078125 301.75 Z M 38.382812 265.921875 L 33.628906 262.851562 C 38.417969 255.417969 43.753906 248.402344 49.632812 241.800781 L 53.855469 245.566406 C 48.171875 251.949219 43.015625 258.734375 38.390625 265.921875 Z M 63.816406 235.324219 L 59.9375 231.207031 C 66.367188 225.144531 73.226562 219.613281 80.515625 214.617188 L 83.714844 219.28125 C 76.667969 224.113281 70.039062 229.460938 63.824219 235.324219 Z M 95.839844 211.71875 L 93.0625 206.792969 C 100.757812 202.453125 108.742188 198.742188 117.019531 195.65625 L 118.996094 200.957031 C 111 203.945312 103.28125 207.535156 95.847656 211.726562 Z M 132.59375 196.566406 L 131.09375 191.109375 C 139.617188 188.765625 148.269531 187.101562 157.050781 186.117188 L 157.683594 191.742188 C 149.195312 192.695312 140.835938 194.308594 132.601562 196.574219 Z M 171.941406 190.765625 L 171.800781 185.105469 C 173.238281 185.070312 174.699219 185.054688 176.136719 185.054688 L 197.898438 185.054688 L 197.898438 190.710938 L 176.144531 190.710938 C 174.75 190.71875 173.339844 190.738281 171.949219 190.773438 Z M 238.476562 190.710938 L 212.449219 190.710938 L 212.449219 185.054688 L 238.476562 185.054688 Z M 253.195312 190.347656 L 252.828125 184.703125 C 261.351562 184.148438 269.78125 182.941406 278.117188 181.074219 L 279.359375 186.589844 C 270.738281 188.527344 262.019531 189.78125 253.199219 190.355469 Z M 293.636719 182.714844 L 291.914062 177.324219 C 300.054688 174.722656 307.941406 171.5 315.574219 167.65625 L 318.121094 172.707031 C 310.222656 176.683594 302.058594 180.019531 293.636719 182.714844 Z M 331.027344 165.480469 L 328.050781 160.671875 C 335.316406 156.171875 342.191406 151.136719 348.675781 145.5625 L 352.363281 149.855469 C 345.65625 155.617188 338.546875 160.828125 331.027344 165.480469 Z M 363.148438 139.746094 L 359.109375 135.789062 C 365.078125 129.679688 370.542969 123.144531 375.5 116.1875 L 380.109375 119.46875 C 374.980469 126.667969 369.328125 133.425781 363.148438 139.746094 Z M 388.148438 107.0625 L 383.269531 104.195312 C 387.597656 96.832031 391.324219 89.183594 394.453125 81.238281 L 399.714844 83.308594 C 396.480469 91.53125 392.625 99.449219 388.148438 107.066406 Z M 404.519531 69.320312 L 399.09375 67.71875 C 401.503906 59.527344 403.265625 51.195312 404.371094 42.726562 L 409.984375 43.460938 C 408.839844 52.222656 407.015625 60.84375 404.519531 69.324219 Z M 411.253906 28.726562 L 405.597656 28.484375 C 405.699219 26.117188 405.757812 23.714844 405.757812 21.335938 L 411.414062 21.335938 C 411.414062 23.796875 411.359375 26.285156 411.253906 28.730469 Z M 411.253906 28.726562 "/></g></g></svg>