<svg xmlns="http://www.w3.org/2000/svg" xmlns:xlink="http://www.w3.org/1999/xlink" width="500" zoomAndPan="magnify" viewBox="0 0 375 374.999991" height="500" preserveAspectRatio="xMidYMid meet" version="1.2"><defs><clipPath id="4e5fb467ab"><path d="M 0 173.203125 L 375 173.203125 L 375 201.703125 L 0 201.703125 Z M 0 173.203125 "/></clipPath><clipPath id="1d9dfc41a0"><path d="M 11 173.203125 L 49 173.203125 L 49 201.703125 L 11 201.703125 Z M 11 173.203125 "/></clipPath><clipPath id="24cd5a3f0b"><path d="M 51 173.203125 L 89 173.203125 L 89 201.703125 L 51 201.703125 Z M 51 173.203125 "/></clipPath><clipPath id="d3b0bf3a62"><path d="M 91 173.203125 L 129 173.203125 L 129 201.703125 L 91 201.703125 Z M 91 173.203125 "/></clipPath><clipPath id="4fd85fd0f9"><path d="M 132 173.203125 L 170 173.203125 L 170 201.703125 L 132 201.703125 Z M 132 173.203125 "/></clipPath><clipPath id="3b14b35a58"><path d="M 172 173.203125 L 210 173.203125 L 210 201.703125 L 172 201.703125 Z M 172 173.203125 "/></clipPath><clipPath id="14c212660d"><path d="M 212 173.203125 L 250 173.203125 L 250 201.703125 L 212 201.703125 Z M 212 173.203125 "/></clipPath><clipPath id="5af14799f9"><path d="M 253 173.203125 L 291 173.203125 L 291 201.703125 L 253 201.703125 Z M 253 173.203125 "/></clipPath><clipPath id="9ed479dff2"><path d="M 293 173.203125 L 331 173.203125 L 331 201.703125 L 293 201.703125 Z M 293 173.203125 "/></clipPath><clipPath id="855772a388"><path d="M 334 173.203125 L 372 173.203125 L 372 201.703125 L 334 201.703125 Z M 334 173.203125 "/></clipPath></defs><g id="545015d989"><g clip-rule="nonzero" clip-path="url(#4e5fb467ab)"><path style=" stroke:none;fill-rule:nonzero;fill:#fdd504;fill-opacity:1;" d="M 0 173.226562 L 375 173.226562 L 375 201.679688 L 0 201.679688 Z M 0 173.226562 "/></g><g clip-rule="nonzero" clip-path="url(#1d9dfc41a0)"><path style=" stroke:none;fill-rule:nonzero;fill:#1a1a1a;fill-opacity:1;" d="M 48.0625 201.679688 L 29.410156 201.679688 L 11.082031 173.226562 L 29.734375 173.226562 Z M 48.0625 201.679688 "/></g><g clip-rule="nonzero" clip-path="url(#24cd5a3f0b)"><path style=" stroke:none;fill-rule:nonzero;fill:#1a1a1a;fill-opacity:1;" d="M 88.441406 201.679688 L 69.789062 201.679688 L 51.457031 173.226562 L 70.109375 173.226562 Z M 88.441406 201.679688 "/></g><g clip-rule="nonzero" clip-path="url(#d3b0bf3a62)"><path style=" stroke:none;fill-rule:nonzero;fill:#1a1a1a;fill-opacity:1;" d="M 128.820312 201.679688 L 110.167969 201.679688 L 91.835938 173.226562 L 110.488281 173.226562 Z M 128.820312 201.679688 "/></g><g clip-rule="nonzero" clip-path="url(#4fd85fd0f9)"><path style=" stroke:none;fill-rule:nonzero;fill:#1a1a1a;fill-opacity:1;" d="M 169.195312 201.679688 L 150.542969 201.679688 L 132.214844 173.226562 L 150.867188 173.226562 Z M 169.195312 201.679688 "/></g><g clip-rule="nonzero" clip-path="url(#3b14b35a58)"><path style=" stroke:none;fill-rule:nonzero;fill:#1a1a1a;fill-opacity:1;" d="M 209.574219 201.679688 L 190.921875 201.679688 L 172.589844 173.226562 L 191.242188 173.226562 Z M 209.574219 201.679688 "/></g><g clip-rule="nonzero" clip-path="url(#14c212660d)"><path style=" stroke:none;fill-rule:nonzero;fill:#1a1a1a;fill-opacity:1;" d="M 249.953125 201.679688 L 231.300781 201.679688 L 212.96875 173.226562 L 231.621094 173.226562 Z M 249.953125 201.679688 "/></g><g clip-rule="nonzero" clip-path="url(#5af14799f9)"><path style=" stroke:none;fill-rule:nonzero;fill:#1a1a1a;fill-opacity:1;" d="M 290.328125 201.679688 L 271.675781 201.679688 L 253.347656 173.226562 L 272 173.226562 Z M 290.328125 201.679688 "/></g><g clip-rule="nonzero" clip-path="url(#9ed479dff2)"><path style=" stroke:none;fill-rule:nonzero;fill:#1a1a1a;fill-opacity:1;" d="M 330.707031 201.679688 L 312.054688 201.679688 L 293.722656 173.226562 L 312.375 173.226562 Z M 330.707031 201.679688 "/></g><g clip-rule="nonzero" clip-path="url(#855772a388)"><path style=" stroke:none;fill-rule:nonzero;fill:#1a1a1a;fill-opacity:1;" d="M 371.085938 201.679688 L 352.433594 201.679688 L 334.101562 173.226562 L 352.753906 173.226562 Z M 371.085938 201.679688 "/></g></g></svg>